<!-- Generated by IcoMoon.io -->
<svg version="1.1" xmlns="http://www.w3.org/2000/svg" width="32" height="32" viewBox="0 0 32 32">
<title>arrow</title>
<path fill="#fff" d="M22.744 16.622l-5.778 5.778c-0.165 0.165-0.385 0.256-0.619 0.256s-0.454-0.091-0.619-0.256l-0.525-0.525c-0.165-0.165-0.256-0.385-0.256-0.619s0.091-0.462 0.256-0.626l3.371-3.378h-10.71c-0.483 0-0.864-0.378-0.864-0.861v-0.742c0-0.483 0.382-0.899 0.864-0.899h10.748l-3.409-3.397c-0.165-0.165-0.256-0.379-0.256-0.614s0.091-0.451 0.256-0.616l0.525-0.523c0.165-0.165 0.385-0.255 0.619-0.255s0.454 0.091 0.619 0.256l5.778 5.778c0.165 0.165 0.256 0.386 0.256 0.621 0 0.236-0.090 0.457-0.256 0.622z"></path>
</svg>
