<!-- Generated by IcoMoon.io -->
<svg version="1.1" xmlns="http://www.w3.org/2000/svg" width="32" height="32" viewBox="0 0 32 32">
<title>search</title>
<path fill="#b4b4b4" d="M20.672 17.605c2.726-3.849 1.814-9.18-2.035-11.905s-9.18-1.814-11.905 2.036c-2.725 3.849-1.814 9.179 2.036 11.905 2.748 1.945 6.38 2.095 9.278 0.384l6.297 6.259c0.68 0.716 1.811 0.744 2.527 0.064s0.744-1.81 0.065-2.526c-0.021-0.023-0.042-0.044-0.065-0.065l-6.197-6.151zM13.697 18.189c-3.042 0.001-5.508-2.464-5.51-5.506-0.001-3.042 2.464-5.508 5.506-5.509 3.038-0.001 5.503 2.459 5.509 5.497 0.005 3.043-2.458 5.513-5.501 5.518-0.001 0-0.002 0-0.004 0z"></path>
</svg>
