<!-- Generated by IcoMoon.io -->
<svg version="1.1" xmlns="http://www.w3.org/2000/svg" width="32" height="32" viewBox="0 0 32 32">
<title>clock</title>
<path fill="#ffbc96" d="M27.818 8.909c-0.62 0.3-0.879 1.046-0.579 1.666 0.819 1.693 1.235 3.518 1.235 5.425 0 6.878-5.596 12.473-12.473 12.473s-12.473-5.596-12.473-12.473c0-6.878 5.596-12.473 12.473-12.473 2.85 0 5.527 0.931 7.743 2.691 0.538 0.429 1.323 0.339 1.753-0.2s0.339-1.324-0.2-1.752c-2.623-2.085-5.925-3.233-9.295-3.233-8.253 0-14.968 6.715-14.968 14.968s6.715 14.968 14.968 14.968c8.253 0 14.968-6.715 14.968-14.968 0-2.287-0.499-4.479-1.484-6.512-0.299-0.621-1.048-0.88-1.666-0.579z"></path>
<path fill="#ffbc96" d="M15.779 6.194c-0.733 0-1.327 0.565-1.327 1.262v8.832c0 0.696 0.595 1.262 1.327 1.262h6.636c0.733 0 1.327-0.565 1.327-1.262s-0.595-1.262-1.327-1.262h-5.309v-7.57c0-0.696-0.595-1.262-1.327-1.262z"></path>
</svg>
