<!-- Generated by IcoMoon.io -->
<svg version="1.1" xmlns="http://www.w3.org/2000/svg" width="31" height="32" viewBox="0 0 31 32">
<title>download-solid</title>
<path fill="#fff" d="M18.955 14.901c-0.081-0.194-0.259-0.318-0.455-0.318h-2v-7.042c0-0.299-0.224-0.542-0.5-0.542h-2c-0.276 0-0.5 0.243-0.5 0.542v7.042h-2c-0.196 0-0.374 0.125-0.455 0.318-0.082 0.194-0.050 0.42 0.079 0.581l3.5 4.333c0.095 0.118 0.232 0.185 0.376 0.185s0.281-0.068 0.376-0.185l3.5-4.333c0.13-0.159 0.16-0.387 0.079-0.581z"></path>
<path fill="none" stroke="#fff" stroke-linejoin="miter" stroke-linecap="round" stroke-miterlimit="4" stroke-width="2" d="M22 17c0 3.866-3.134 7-7 7s-7-3.134-7-7"></path>
</svg>
