<!-- Generated by IcoMoon.io -->
<svg version="1.1" xmlns="http://www.w3.org/2000/svg" width="118" height="32" viewBox="0 0 118 32">
<title>logo</title>
<path d="M2.729 26v-13.261h1.335c0.253 0 0.428 0.048 0.524 0.144s0.161 0.262 0.196 0.498l0.157 2.068c0.454-0.925 1.012-1.645 1.676-2.16 0.672-0.524 1.457-0.785 2.356-0.785 0.367 0 0.698 0.044 0.995 0.131 0.297 0.079 0.572 0.192 0.825 0.34l-0.301 1.741c-0.061 0.218-0.196 0.327-0.406 0.327-0.122 0-0.31-0.039-0.563-0.118-0.253-0.087-0.607-0.131-1.060-0.131-0.812 0-1.492 0.236-2.042 0.707-0.541 0.471-0.995 1.156-1.361 2.055v8.444h-2.33zM18.539 12.53c0.794 0 1.527 0.135 2.199 0.406 0.672 0.262 1.252 0.646 1.741 1.152 0.489 0.497 0.868 1.117 1.139 1.859 0.279 0.733 0.419 1.571 0.419 2.513 0 0.367-0.039 0.611-0.118 0.733s-0.227 0.183-0.445 0.183h-8.823c0.017 0.838 0.131 1.567 0.34 2.186s0.498 1.139 0.864 1.558c0.367 0.41 0.803 0.72 1.309 0.93 0.506 0.201 1.073 0.301 1.702 0.301 0.585 0 1.087-0.065 1.506-0.196 0.428-0.14 0.794-0.288 1.1-0.445s0.559-0.301 0.759-0.432c0.209-0.14 0.388-0.209 0.537-0.209 0.192 0 0.34 0.074 0.445 0.223l0.655 0.851c-0.288 0.349-0.633 0.654-1.034 0.916-0.401 0.253-0.834 0.462-1.296 0.628-0.454 0.166-0.925 0.288-1.414 0.367-0.489 0.087-0.973 0.131-1.453 0.131-0.916 0-1.763-0.153-2.54-0.458-0.768-0.314-1.436-0.768-2.003-1.361-0.559-0.602-0.995-1.344-1.309-2.225s-0.471-1.894-0.471-3.037c0-0.925 0.14-1.789 0.419-2.592 0.288-0.803 0.698-1.497 1.23-2.082 0.532-0.593 1.183-1.056 1.951-1.388 0.768-0.34 1.632-0.511 2.592-0.511zM18.591 14.244c-1.126 0-2.012 0.327-2.657 0.982-0.646 0.646-1.047 1.545-1.204 2.697h7.213c0-0.541-0.074-1.034-0.223-1.479-0.148-0.454-0.367-0.842-0.655-1.165-0.288-0.332-0.641-0.585-1.060-0.759-0.41-0.183-0.881-0.275-1.414-0.275zM36.759 26h-1.034c-0.227 0-0.41-0.035-0.55-0.105s-0.231-0.218-0.275-0.445l-0.262-1.231c-0.349 0.314-0.689 0.598-1.021 0.851-0.332 0.244-0.681 0.454-1.047 0.628-0.367 0.166-0.759 0.292-1.178 0.38-0.41 0.087-0.868 0.131-1.375 0.131-0.515 0-0.999-0.070-1.453-0.209-0.445-0.148-0.833-0.366-1.165-0.654s-0.598-0.65-0.799-1.087c-0.192-0.445-0.288-0.969-0.288-1.571 0-0.524 0.144-1.026 0.432-1.506 0.288-0.489 0.751-0.921 1.388-1.296 0.646-0.375 1.488-0.681 2.527-0.916 1.038-0.244 2.308-0.384 3.809-0.419v-1.034c0-1.030-0.222-1.807-0.668-2.33-0.436-0.532-1.087-0.799-1.95-0.799-0.567 0-1.047 0.074-1.44 0.223-0.384 0.14-0.72 0.301-1.008 0.484-0.279 0.175-0.524 0.336-0.733 0.484-0.201 0.14-0.401 0.21-0.602 0.21-0.157 0-0.297-0.039-0.419-0.118-0.113-0.087-0.205-0.192-0.275-0.314l-0.419-0.746c0.733-0.707 1.523-1.235 2.369-1.584s1.785-0.524 2.815-0.524c0.742 0 1.401 0.122 1.977 0.367s1.060 0.585 1.453 1.021 0.689 0.964 0.89 1.584c0.201 0.62 0.301 1.3 0.301 2.042v8.483zM30.711 24.573c0.41 0 0.785-0.039 1.126-0.118 0.34-0.087 0.659-0.205 0.956-0.354 0.306-0.157 0.593-0.345 0.864-0.563 0.279-0.218 0.55-0.467 0.812-0.746v-2.762c-1.073 0.035-1.985 0.122-2.736 0.262-0.75 0.131-1.361 0.305-1.833 0.524s-0.816 0.476-1.034 0.772c-0.209 0.297-0.314 0.628-0.314 0.995 0 0.349 0.057 0.65 0.17 0.903s0.266 0.463 0.458 0.628c0.192 0.157 0.419 0.275 0.681 0.354 0.262 0.070 0.546 0.105 0.851 0.105zM49.623 26c-0.332 0-0.541-0.162-0.628-0.484l-0.209-1.61c-0.567 0.689-1.218 1.244-1.95 1.663-0.724 0.41-1.558 0.615-2.5 0.615-0.759 0-1.449-0.144-2.068-0.432-0.62-0.297-1.148-0.729-1.584-1.296s-0.772-1.274-1.008-2.121c-0.236-0.846-0.353-1.82-0.353-2.919 0-0.977 0.131-1.885 0.393-2.723 0.262-0.847 0.637-1.58 1.126-2.199 0.498-0.62 1.1-1.104 1.807-1.453 0.707-0.358 1.51-0.537 2.409-0.537 0.812 0 1.505 0.14 2.081 0.419 0.576 0.271 1.091 0.655 1.545 1.152v-7.357h2.33v19.283h-1.388zM45.107 24.298c0.759 0 1.422-0.175 1.99-0.524 0.576-0.349 1.104-0.842 1.584-1.479v-6.415c-0.428-0.576-0.899-0.977-1.414-1.204-0.506-0.236-1.069-0.354-1.689-0.354-1.239 0-2.191 0.441-2.854 1.322s-0.995 2.138-0.995 3.77c0 0.864 0.074 1.606 0.222 2.225 0.148 0.611 0.367 1.117 0.655 1.519 0.288 0.393 0.641 0.681 1.060 0.864s0.899 0.275 1.44 0.275zM54.574 26v-13.575h2.514c0.253 0 0.462 0.057 0.628 0.17 0.175 0.114 0.297 0.284 0.367 0.511l0.222 0.733c0.227-0.236 0.463-0.449 0.707-0.641 0.244-0.201 0.506-0.371 0.785-0.511 0.288-0.148 0.593-0.262 0.916-0.34 0.332-0.087 0.694-0.131 1.087-0.131 0.82 0 1.497 0.214 2.029 0.641 0.541 0.419 0.951 0.982 1.231 1.689 0.227-0.419 0.502-0.777 0.825-1.073 0.332-0.297 0.685-0.537 1.060-0.72 0.384-0.183 0.785-0.319 1.204-0.406 0.428-0.087 0.851-0.131 1.27-0.131 0.777 0 1.466 0.118 2.068 0.353 0.602 0.227 1.104 0.563 1.505 1.008 0.41 0.436 0.72 0.977 0.93 1.623 0.21 0.637 0.314 1.361 0.314 2.173v8.627h-4.058v-8.627c0-1.405-0.602-2.108-1.806-2.108-0.55 0-1.008 0.183-1.375 0.55-0.358 0.358-0.537 0.877-0.537 1.558v8.627h-4.058v-8.627c0-0.777-0.153-1.322-0.458-1.636s-0.755-0.471-1.348-0.471c-0.367 0-0.716 0.083-1.047 0.249-0.323 0.166-0.628 0.388-0.916 0.668v9.818h-4.058zM83.173 12.215c1.030 0 1.968 0.161 2.814 0.484s1.571 0.786 2.173 1.388c0.611 0.602 1.082 1.335 1.414 2.199 0.34 0.855 0.511 1.82 0.511 2.893 0 1.082-0.17 2.060-0.511 2.932-0.332 0.864-0.803 1.602-1.414 2.212-0.602 0.602-1.326 1.069-2.173 1.401-0.847 0.323-1.785 0.484-2.814 0.484-1.039 0-1.986-0.162-2.841-0.484-0.847-0.332-1.58-0.799-2.199-1.401-0.611-0.611-1.087-1.348-1.427-2.212-0.332-0.873-0.498-1.85-0.498-2.932 0-1.073 0.166-2.038 0.498-2.893 0.34-0.864 0.816-1.597 1.427-2.199 0.62-0.602 1.353-1.065 2.199-1.388 0.855-0.323 1.802-0.484 2.841-0.484zM83.173 23.198c0.934 0 1.619-0.327 2.055-0.982 0.445-0.663 0.668-1.667 0.668-3.011s-0.223-2.343-0.668-2.998c-0.436-0.655-1.121-0.982-2.055-0.982-0.96 0-1.663 0.327-2.108 0.982s-0.668 1.654-0.668 2.998c0 1.344 0.222 2.348 0.668 3.011 0.445 0.655 1.148 0.982 2.108 0.982zM92.312 26v-13.575h2.409c0.201 0 0.367 0.018 0.498 0.052 0.14 0.035 0.253 0.092 0.34 0.17 0.096 0.070 0.166 0.166 0.21 0.288 0.052 0.122 0.096 0.271 0.131 0.445l0.222 1.27c0.498-0.768 1.056-1.375 1.676-1.82s1.296-0.668 2.029-0.668c0.619 0 1.117 0.148 1.492 0.445l-0.524 2.985c-0.035 0.183-0.104 0.314-0.209 0.393-0.105 0.070-0.245 0.105-0.419 0.105-0.148 0-0.323-0.017-0.524-0.052-0.201-0.044-0.454-0.065-0.759-0.065-1.065 0-1.903 0.567-2.513 1.702v8.326h-4.058zM108.94 12.215c0.899 0 1.719 0.14 2.461 0.419 0.751 0.279 1.392 0.685 1.925 1.217 0.541 0.532 0.96 1.187 1.256 1.964 0.306 0.768 0.458 1.641 0.458 2.618 0 0.305-0.013 0.554-0.039 0.746s-0.074 0.345-0.144 0.458c-0.070 0.113-0.166 0.192-0.288 0.236-0.113 0.044-0.262 0.065-0.445 0.065h-7.828c0.131 1.135 0.475 1.959 1.034 2.474 0.558 0.506 1.278 0.759 2.16 0.759 0.471 0 0.877-0.057 1.217-0.17s0.642-0.24 0.904-0.38c0.27-0.14 0.515-0.266 0.733-0.38 0.227-0.113 0.462-0.17 0.707-0.17 0.323 0 0.567 0.118 0.733 0.354l1.178 1.453c-0.419 0.48-0.873 0.873-1.362 1.178-0.48 0.297-0.977 0.532-1.492 0.707-0.506 0.166-1.017 0.279-1.532 0.34-0.506 0.070-0.99 0.105-1.453 0.105-0.951 0-1.845-0.153-2.683-0.458-0.829-0.314-1.558-0.777-2.186-1.388-0.62-0.611-1.113-1.37-1.48-2.278-0.358-0.908-0.536-1.964-0.536-3.168 0-0.908 0.152-1.767 0.458-2.579 0.314-0.812 0.759-1.523 1.335-2.134 0.585-0.611 1.287-1.095 2.108-1.453 0.829-0.358 1.763-0.537 2.801-0.537zM109.019 15.017c-0.777 0-1.384 0.223-1.82 0.668-0.436 0.436-0.724 1.069-0.864 1.898h5.066c0-0.323-0.043-0.637-0.131-0.942-0.078-0.305-0.214-0.576-0.406-0.812-0.183-0.244-0.427-0.441-0.733-0.589s-0.676-0.223-1.112-0.223z"></path>
</svg>
