<!-- Generated by IcoMoon.io -->
<svg version="1.1" xmlns="http://www.w3.org/2000/svg" width="32" height="32" viewBox="0 0 32 32">
<title>read-solid</title>
<path fill="#fff" d="M16.475 10.571c0-0.4 0.26-0.754 0.642-0.874l7.932-2.479c0.589-0.184 1.188 0.256 1.188 0.874v13.947c0 0.4-0.26 0.754-0.642 0.874l-7.932 2.479c-0.589 0.184-1.188-0.256-1.188-0.874v-13.947z"></path>
<path fill="#fff" d="M5.492 22.039c0 0.4 0.26 0.754 0.642 0.874l7.932 2.479c0.589 0.184 1.188-0.256 1.188-0.874v-13.947c0-0.4-0.26-0.754-0.642-0.874l-7.932-2.479c-0.589-0.184-1.188 0.256-1.188 0.874v13.947z"></path>
</svg>
