<!-- Generated by IcoMoon.io -->
<svg version="1.1" xmlns="http://www.w3.org/2000/svg" width="32" height="32" viewBox="0 0 32 32">
<title>read-null</title>
<path fill="none" stroke="#fff" stroke-linejoin="miter" stroke-linecap="butt" stroke-miterlimit="4" stroke-width="1.2597" d="M17.227 9.842l8.188-2.559c0.203-0.063 0.409 0.088 0.409 0.301v14.396c0 0.138-0.090 0.259-0.221 0.301l-8.188 2.559c-0.203 0.063-0.409-0.088-0.409-0.301v-14.396c0-0.138 0.090-0.259 0.221-0.301z"></path>
<path fill="none" stroke="#fff" stroke-linejoin="miter" stroke-linecap="butt" stroke-miterlimit="4" stroke-width="1.2597" d="M5.89 22.281l8.188 2.559c0.203 0.063 0.409-0.088 0.409-0.301v-14.396c0-0.138-0.089-0.259-0.221-0.301l-8.188-2.559c-0.203-0.063-0.409 0.088-0.409 0.301v14.396c0 0.138 0.090 0.259 0.221 0.301z"></path>
<path fill="none" stroke="#fff" stroke-linejoin="bevel" stroke-linecap="round" stroke-miterlimit="4" stroke-width="2.0645" d="M28.903 15.484h-26.839"></path>
</svg>
