<!-- Generated by IcoMoon.io -->
<svg version="1.1" xmlns="http://www.w3.org/2000/svg" width="32" height="32" viewBox="0 0 32 32">
<title>x</title>
<path fill="#fff" d="M22.571 8.429c-0.586-0.586-1.536-0.586-2.121 0l-4.95 4.95-4.95-4.95c-0.586-0.586-1.536-0.586-2.121 0s-0.586 1.536 0 2.121l4.95 4.95-4.95 4.95c-0.586 0.586-0.586 1.536 0 2.121s1.536 0.586 2.121 0l4.95-4.95 4.95 4.95c0.586 0.586 1.536 0.586 2.121 0s0.586-1.536 0-2.121l-4.95-4.95 4.95-4.95c0.586-0.586 0.586-1.536 0-2.121z"></path>
</svg>
