<svg aria-hidden="true" style="position: absolute; width: 0; height: 0; overflow: hidden;" version="1.1" xmlns="http://www.w3.org/2000/svg" xmlns:xlink="http://www.w3.org/1999/xlink">
<defs>
<symbol id="icon-arrow" viewBox="0 0 32 32">
<path fill="#fff" style="fill: var(--color1, #fff)" d="M22.744 16.622l-5.778 5.778c-0.165 0.165-0.385 0.256-0.619 0.256s-0.454-0.091-0.619-0.256l-0.525-0.525c-0.165-0.165-0.256-0.385-0.256-0.619s0.091-0.462 0.256-0.626l3.371-3.378h-10.71c-0.483 0-0.864-0.378-0.864-0.861v-0.742c0-0.483 0.382-0.899 0.864-0.899h10.748l-3.409-3.397c-0.165-0.165-0.256-0.379-0.256-0.614s0.091-0.451 0.256-0.616l0.525-0.523c0.165-0.165 0.385-0.255 0.619-0.255s0.454 0.091 0.619 0.256l5.778 5.778c0.165 0.165 0.256 0.386 0.256 0.621 0 0.236-0.090 0.457-0.256 0.622z"></path>
</symbol>
<symbol id="icon-bookmark-solid" viewBox="0 0 31 32">
<path fill="#fff" style="fill: var(--color1, #fff)" d="M10.407 7.702c0-0.135 0.109-0.244 0.244-0.244h10.19c0.135 0 0.244 0.109 0.244 0.244v16.333c0 0.205-0.237 0.318-0.397 0.191l-4.79-3.832c-0.089-0.071-0.216-0.071-0.305 0l-4.79 3.832c-0.16 0.128-0.396 0.014-0.396-0.191v-16.333z"></path>
</symbol>
<symbol id="icon-bookmark" viewBox="0 0 32 32">
<path fill="none" stroke="#fff" style="stroke: var(--color1, #fff)" stroke-linejoin="miter" stroke-linecap="butt" stroke-miterlimit="4" stroke-width="1.2203" d="M11.186 23.273v-15.205h9.458v15.205l-4.195-3.356c-0.312-0.25-0.755-0.25-1.067 0l-4.195 3.356zM10.592 23.749c0-0 0-0 0.001-0l-0.001 0z"></path>
</symbol>
<symbol id="icon-camera" viewBox="0 0 32 32">
<path fill="#fff" style="fill: var(--color1, #fff)" d="M16 21.419c2.494 0 4.516-2.022 4.516-4.516s-2.022-4.516-4.516-4.516-4.516 2.022-4.516 4.516c0 2.494 2.022 4.516 4.516 4.516z"></path>
<path fill="#fff" style="fill: var(--color1, #fff)" d="M25.032 9.677h-2.865c-0.362 0-0.702-0.141-0.958-0.397l-1.651-1.651c-0.426-0.426-0.994-0.662-1.597-0.662h-3.923c-0.603 0-1.17 0.235-1.597 0.662l-1.651 1.651c-0.256 0.256-0.596 0.397-0.958 0.397h-2.864c-0.996 0-1.806 0.81-1.806 1.806v11.742c0 0.996 0.81 1.806 1.806 1.806h18.064c0.996 0 1.806-0.81 1.806-1.806v-11.742c0-0.996-0.81-1.806-1.806-1.806zM16 22.323c-2.988 0-5.419-2.431-5.419-5.419s2.431-5.419 5.419-5.419c2.988 0 5.419 2.431 5.419 5.419s-2.431 5.419-5.419 5.419zM23.226 14.194c-0.498 0-0.903-0.405-0.903-0.903s0.405-0.903 0.903-0.903c0.498 0 0.903 0.405 0.903 0.903s-0.405 0.903-0.903 0.903z"></path>
</symbol>
<symbol id="icon-categories" viewBox="0 0 32 32">
<path fill="#b4b4b4" style="fill: var(--color2, #b4b4b4)" d="M16.423 5.423l3.692 3.692c0.51 0.51 0.51 1.336 0 1.846l-3.692 3.692c-0.51 0.51-1.336 0.51-1.846 0l-3.692-3.692c-0.51-0.51-0.51-1.336 0-1.846l3.692-3.692c0.51-0.51 1.336-0.51 1.846 0z"></path>
<path fill="#b4b4b4" style="fill: var(--color2, #b4b4b4)" d="M9.962 11.885l3.692 3.692c0.51 0.51 0.51 1.336 0 1.846l-3.692 3.692c-0.51 0.51-1.336 0.51-1.846 0l-3.692-3.692c-0.51-0.51-0.51-1.336 0-1.846l3.692-3.692c0.51-0.51 1.336-0.51 1.846 0z"></path>
<path fill="#b4b4b4" style="fill: var(--color2, #b4b4b4)" d="M22.885 11.885l3.692 3.692c0.51 0.51 0.51 1.336 0 1.846l-3.692 3.692c-0.51 0.51-1.336 0.51-1.846 0l-3.692-3.692c-0.51-0.51-0.51-1.336 0-1.846l3.692-3.692c0.51-0.51 1.336-0.51 1.846 0z"></path>
<path fill="#b4b4b4" style="fill: var(--color2, #b4b4b4)" d="M16.423 18.346l3.692 3.692c0.51 0.51 0.51 1.336 0 1.846l-3.692 3.692c-0.51 0.51-1.336 0.51-1.846 0l-3.692-3.692c-0.51-0.51-0.51-1.336 0-1.846l3.692-3.692c0.51-0.51 1.336-0.51 1.846 0z"></path>
</symbol>
<symbol id="icon-download" viewBox="0 0 31 32">
<path fill="none" stroke="#fff" style="stroke: var(--color1, #fff)" stroke-linejoin="miter" stroke-linecap="butt" stroke-miterlimit="4" stroke-width="0.9153" d="M19.528 14.025c-0.087-0.191-0.277-0.313-0.486-0.313h-2.136v-6.941c0-0.295-0.239-0.534-0.534-0.534h-2.136c-0.295 0-0.534 0.239-0.534 0.534v6.941h-2.136c-0.209 0-0.399 0.123-0.486 0.313-0.088 0.191-0.053 0.414 0.084 0.572l3.737 4.271c0.101 0.116 0.248 0.183 0.402 0.183s0.3-0.067 0.401-0.183l3.737-4.271c0.139-0.157 0.171-0.381 0.084-0.572z"></path>
<path fill="none" stroke="#fff" style="stroke: var(--color1, #fff)" stroke-linejoin="miter" stroke-linecap="butt" stroke-miterlimit="4" stroke-width="0.9153" d="M21.178 19.203v3.203h-11.746v-3.203h-2.136v4.271c0 0.59 0.478 1.068 1.068 1.068h13.881c0.59 0 1.068-0.477 1.068-1.068v-4.271h-2.136z"></path>
</symbol>
<symbol id="icon-download-solid" viewBox="0 0 31 32">
<path fill="#fff" style="fill: var(--color1, #fff)" d="M18.955 14.901c-0.081-0.194-0.259-0.318-0.455-0.318h-2v-7.042c0-0.299-0.224-0.542-0.5-0.542h-2c-0.276 0-0.5 0.243-0.5 0.542v7.042h-2c-0.196 0-0.374 0.125-0.455 0.318-0.082 0.194-0.050 0.42 0.079 0.581l3.5 4.333c0.095 0.118 0.232 0.185 0.376 0.185s0.281-0.068 0.376-0.185l3.5-4.333c0.13-0.159 0.16-0.387 0.079-0.581z"></path>
<path fill="none" stroke="#fff" style="stroke: var(--color1, #fff)" stroke-linejoin="miter" stroke-linecap="round" stroke-miterlimit="4" stroke-width="2" d="M22 17c0 3.866-3.134 7-7 7s-7-3.134-7-7"></path>
</symbol>
<symbol id="icon-facebook" viewBox="0 0 32 32">
<path fill="#3b5999" style="fill: var(--color3, #3b5999)" d="M0 0h32v32h-32v-32z"></path>
<path fill="#fff" style="fill: var(--color1, #fff)" d="M19.604 8.932h2.073v-3.611c-0.358-0.049-1.588-0.16-3.020-0.16-6.559 0-4.774 7.428-5.035 8.516h-3.299v4.037h3.298v10.157h4.044v-10.156h3.165l0.502-4.037h-3.668c0.178-2.672-0.72-4.746 1.941-4.746z"></path>
</symbol>
<symbol id="icon-gmail" viewBox="0 0 32 32">
<path fill="#eb4132" style="fill: var(--color4, #eb4132)" d="M0 0h31.493v31.493h-31.493v-31.493z"></path>
<path fill="#eb4132" style="fill: var(--color4, #eb4132)" d="M0 0h32v32h-32v-32z"></path>
<path fill="#fff" style="fill: var(--color1, #fff)" d="M10 15.484c0-1.023 0.282-1.981 0.771-2.802v-3.48h-3.48c-1.381 1.794-2.13 3.98-2.13 6.282s0.749 4.488 2.13 6.282h3.48v-3.48c-0.49-0.82-0.771-1.779-0.771-2.801v0z"></path>
<path fill="#fff" style="fill: var(--color1, #fff)" d="M15.484 20.968l-2.419 2.419 2.419 2.419c2.302 0 4.488-0.749 6.282-2.13v-3.476h-3.477c-0.828 0.491-1.79 0.768-2.805 0.768v0z"></path>
<path fill="#fff" style="fill: var(--color1, #fff)" d="M10.771 18.285l-3.48 3.48c0.273 0.355 0.571 0.695 0.893 1.018 1.95 1.95 4.542 3.023 7.299 3.023v-4.839c-2.001 0-3.755-1.077-4.712-2.682z"></path>
<path fill="#fff" style="fill: var(--color1, #fff)" d="M25.806 15.484c0-0.628-0.057-1.257-0.169-1.87l-0.091-0.496h-10.063v4.839h4.897c-0.476 0.946-1.207 1.718-2.092 2.244l3.476 3.476c0.355-0.273 0.695-0.571 1.018-0.894 1.95-1.95 3.023-4.542 3.023-7.299v0z"></path>
<path fill="#fff" style="fill: var(--color1, #fff)" d="M19.362 11.606l0.428 0.428 3.422-3.421-0.428-0.428c-1.95-1.95-4.542-3.023-7.299-3.023l-2.419 2.419 2.419 2.419c1.465 0 2.842 0.57 3.878 1.606z"></path>
<path fill="#fff" style="fill: var(--color1, #fff)" d="M15.484 10v-4.839c-2.757 0-5.349 1.074-7.299 3.023-0.322 0.322-0.62 0.662-0.893 1.018l3.48 3.48c0.958-1.605 2.712-2.682 4.712-2.682v0z"></path>
</symbol>
<symbol id="icon-headphone" viewBox="0 0 31 32">
<path fill="none" stroke="#fff" style="stroke: var(--color1, #fff)" stroke-linejoin="miter" stroke-linecap="butt" stroke-miterlimit="4" stroke-width="1.2203" d="M24.263 17.454v-1.7c0-2.348-0.914-4.555-2.574-6.214s-3.867-2.574-6.215-2.574c-2.348 0-4.555 0.914-6.215 2.574s-2.574 3.867-2.574 6.214v1.7c-0.882 0.050-1.584 0.783-1.584 1.677v2.633c0 0.927 0.754 1.68 1.68 1.68h0.971c0.069 1.003 0.906 1.797 1.926 1.797 1.065 0 1.931-0.866 1.931-1.931v-5.726c0-1.065-0.866-1.931-1.931-1.931-0.196 0-0.384 0.030-0.562 0.084 0.009-3.498 2.857-6.341 6.357-6.341s6.349 2.843 6.357 6.341c-0.178-0.054-0.367-0.084-0.562-0.084-1.065 0-1.931 0.866-1.931 1.931v5.726c0 1.065 0.866 1.931 1.931 1.931 1.020 0 1.857-0.795 1.926-1.797h0.971c0.927 0 1.68-0.754 1.68-1.68v-2.633c0-0.894-0.702-1.627-1.584-1.677z"></path>
</symbol>
<symbol id="icon-headphone-solid" viewBox="0 0 32 32">
<path fill="#fff" style="fill: var(--color1, #fff); stroke: var(--color1, #fff)" stroke="#fff" stroke-linejoin="miter" stroke-linecap="butt" stroke-miterlimit="4" stroke-width="0.6102" d="M24.348 17.454v0.288l0.288 0.016c0.721 0.041 1.296 0.642 1.296 1.373v2.633c0 0.758-0.617 1.375-1.375 1.375h-1.256l-0.020 0.284c-0.058 0.844-0.764 1.513-1.622 1.513-0.896 0-1.626-0.73-1.626-1.626v-5.726c0-0.896 0.73-1.626 1.626-1.626 0.165 0 0.324 0.025 0.473 0.070l0.395 0.12-0.001-0.413c-0.009-3.666-2.994-6.646-6.662-6.646s-6.653 2.979-6.662 6.646l-0.001 0.413 0.395-0.12c0.15-0.046 0.309-0.070 0.473-0.070 0.896 0 1.626 0.73 1.626 1.626v5.726c0 0.896-0.73 1.626-1.626 1.626-0.858 0-1.563-0.669-1.622-1.513l-0.020-0.284h-1.256c-0.758 0-1.375-0.617-1.375-1.375v-2.633c0-0.731 0.575-1.332 1.296-1.373l0.288-0.016v-1.989c0-2.267 0.882-4.396 2.485-5.999s3.732-2.485 5.999-2.485c2.267 0 4.396 0.882 5.999 2.485v0c1.603 1.603 2.485 3.732 2.485 5.999v1.7z"></path>
</symbol>
<symbol id="icon-key" viewBox="0 0 32 32">
<path fill="#fff" style="fill: var(--color1, #fff)" d="M23.862 7.106c-2.594-2.594-6.815-2.594-9.409 0-1.772 1.772-2.387 4.383-1.62 6.752l-7.493 7.493c-0.113 0.113-0.177 0.267-0.177 0.428v3.422c0 0.334 0.271 0.605 0.605 0.605h3.422c0.161 0 0.314-0.064 0.428-0.177l0.855-0.856c0.131-0.13 0.194-0.314 0.173-0.497l-0.106-0.919 1.273-0.12c0.289-0.027 0.518-0.256 0.545-0.545l0.12-1.273 0.919 0.107c0.171 0.023 0.343-0.034 0.472-0.149s0.203-0.279 0.203-0.452v-1.126h1.106c0.161 0 0.314-0.064 0.428-0.177l1.551-1.531c2.369 0.768 4.935 0.199 6.707-1.574 2.594-2.594 2.594-6.815 0-9.409zM22.151 11.383c-0.708 0.708-1.858 0.708-2.566 0s-0.708-1.858 0-2.566c0.708-0.708 1.858-0.708 2.566 0s0.708 1.858 0 2.566z"></path>
</symbol>
<symbol id="icon-log-out" viewBox="0 0 32 32">
<path fill="none" stroke="#e2e2e2" style="stroke: var(--color5, #e2e2e2)" stroke-linejoin="bevel" stroke-linecap="round" stroke-miterlimit="4" stroke-width="2" d="M18.79 10c2.507 1.347 4.21 3.988 4.21 7.025 0 4.404-3.582 7.975-8 7.975s-8-3.57-8-7.975c0-3.038 1.704-5.679 4.21-7.025"></path>
<path fill="none" stroke="#e2e2e2" style="stroke: var(--color5, #e2e2e2)" stroke-linejoin="miter" stroke-linecap="round" stroke-miterlimit="4" stroke-width="2" d="M15 9v5"></path>
</symbol>
<symbol id="icon-mail" viewBox="0 0 32 32">
<path fill="#fff" style="fill: var(--color1, #fff)" d="M26.138 9.514c-2.865 2.4-7.891 6.621-9.368 7.938-0.198 0.178-0.411 0.268-0.632 0.268s-0.433-0.090-0.63-0.266c-1.479-1.318-6.505-5.54-9.37-7.939-0.178-0.149-0.206-0.411-0.061-0.594 0.334-0.421 0.831-0.663 1.365-0.663h17.393c0.533 0 1.031 0.242 1.365 0.663 0.144 0.182 0.117 0.444-0.061 0.593z"></path>
<path fill="#fff" style="fill: var(--color1, #fff)" d="M5.954 10.815c0.154-0.071 0.335-0.046 0.464 0.062 3.177 2.664 7.231 6.078 8.507 7.215 0.716 0.639 1.71 0.639 2.427-0.001 1.36-1.212 5.913-5.040 8.506-7.214 0.129-0.108 0.311-0.132 0.464-0.062s0.252 0.223 0.252 0.39v10.817c0 0.949-0.78 1.72-1.739 1.72h-17.393c-0.959 0-1.739-0.772-1.739-1.72v-10.817c0-0.168 0.099-0.32 0.252-0.39z"></path>
</symbol>
<symbol id="icon-read" viewBox="0 0 31 32">
<path fill="none" stroke="#fff" style="stroke: var(--color1, #fff)" stroke-linejoin="miter" stroke-linecap="butt" stroke-miterlimit="4" stroke-width="1.2203" d="M16.475 10.571c0-0.133 0.087-0.251 0.214-0.291l7.932-2.479c0.196-0.061 0.396 0.085 0.396 0.291v13.947c0 0.133-0.087 0.251-0.214 0.291l-7.932 2.479c-0.197 0.061-0.396-0.085-0.396-0.291v-13.947z"></path>
<path fill="none" stroke="#fff" style="stroke: var(--color1, #fff)" stroke-linejoin="miter" stroke-linecap="butt" stroke-miterlimit="4" stroke-width="1.2203" d="M5.492 22.039c0 0.133 0.087 0.251 0.214 0.291l7.932 2.479c0.197 0.061 0.396-0.085 0.396-0.291v-13.947c0-0.133-0.087-0.251-0.214-0.291l-7.932-2.479c-0.196-0.061-0.396 0.085-0.396 0.291v13.947z"></path>
</symbol>
<symbol id="icon-read-solid" viewBox="0 0 32 32">
<path fill="#fff" style="fill: var(--color1, #fff)" d="M16.475 10.571c0-0.4 0.26-0.754 0.642-0.874l7.932-2.479c0.589-0.184 1.188 0.256 1.188 0.874v13.947c0 0.4-0.26 0.754-0.642 0.874l-7.932 2.479c-0.589 0.184-1.188-0.256-1.188-0.874v-13.947z"></path>
<path fill="#fff" style="fill: var(--color1, #fff)" d="M5.492 22.039c0 0.4 0.26 0.754 0.642 0.874l7.932 2.479c0.589 0.184 1.188-0.256 1.188-0.874v-13.947c0-0.4-0.26-0.754-0.642-0.874l-7.932-2.479c-0.589-0.184-1.188 0.256-1.188 0.874v13.947z"></path>
</symbol>
<symbol id="icon-user-unknow" viewBox="0 0 32 32">
<path fill="#fff" style="fill: var(--color1, #fff)" d="M16 5.5c-2.908 0-5.273 2.366-5.273 5.273s2.366 5.273 5.273 5.273 5.273-2.366 5.273-5.274c0-2.908-2.366-5.273-5.273-5.273z"></path>
<path fill="#fff" style="fill: var(--color1, #fff)" d="M22.561 19.492c-1.444-1.466-3.358-2.273-5.389-2.273h-2.344c-2.031 0-3.946 0.807-5.389 2.273-1.437 1.459-2.228 3.384-2.228 5.422 0 0.324 0.262 0.586 0.586 0.586h16.406c0.324 0 0.586-0.262 0.586-0.586 0-2.038-0.791-3.963-2.228-5.422z"></path>
</symbol>
<symbol id="icon-x" viewBox="0 0 32 32">
<path fill="#fff" style="fill: var(--color1, #fff)" d="M22.571 8.429c-0.586-0.586-1.536-0.586-2.121 0l-4.95 4.95-4.95-4.95c-0.586-0.586-1.536-0.586-2.121 0s-0.586 1.536 0 2.121l4.95 4.95-4.95 4.95c-0.586 0.586-0.586 1.536 0 2.121s1.536 0.586 2.121 0l4.95-4.95 4.95 4.95c0.586 0.586 1.536 0.586 2.121 0s0.586-1.536 0-2.121l-4.95-4.95 4.95-4.95c0.586-0.586 0.586-1.536 0-2.121z"></path>
</symbol>
</defs>
</svg>
