<!-- Generated by IcoMoon.io -->
<svg version="1.1" xmlns="http://www.w3.org/2000/svg" width="31" height="32" viewBox="0 0 31 32">
<title>download</title>
<path fill="none" stroke="#fff" stroke-linejoin="miter" stroke-linecap="butt" stroke-miterlimit="4" stroke-width="0.9153" d="M19.528 14.025c-0.087-0.191-0.277-0.313-0.486-0.313h-2.136v-6.941c0-0.295-0.239-0.534-0.534-0.534h-2.136c-0.295 0-0.534 0.239-0.534 0.534v6.941h-2.136c-0.209 0-0.399 0.123-0.486 0.313-0.088 0.191-0.053 0.414 0.084 0.572l3.737 4.271c0.101 0.116 0.248 0.183 0.402 0.183s0.3-0.067 0.401-0.183l3.737-4.271c0.139-0.157 0.171-0.381 0.084-0.572z"></path>
<path fill="none" stroke="#fff" stroke-linejoin="miter" stroke-linecap="butt" stroke-miterlimit="4" stroke-width="0.9153" d="M21.178 19.203v3.203h-11.746v-3.203h-2.136v4.271c0 0.59 0.478 1.068 1.068 1.068h13.881c0.59 0 1.068-0.477 1.068-1.068v-4.271h-2.136z"></path>
</svg>
