<!-- Generated by IcoMoon.io -->
<svg version="1.1" xmlns="http://www.w3.org/2000/svg" width="32" height="32" viewBox="0 0 32 32">
<title>gmail</title>
<path fill="#eb4132" d="M0 0h31.493v31.493h-31.493v-31.493z"></path>
<path fill="#eb4132" d="M0 0h32v32h-32v-32z"></path>
<path fill="#fff" d="M10 15.484c0-1.023 0.282-1.981 0.771-2.802v-3.48h-3.48c-1.381 1.794-2.13 3.98-2.13 6.282s0.749 4.488 2.13 6.282h3.48v-3.48c-0.49-0.82-0.771-1.779-0.771-2.801v0z"></path>
<path fill="#fff" d="M15.484 20.968l-2.419 2.419 2.419 2.419c2.302 0 4.488-0.749 6.282-2.13v-3.476h-3.477c-0.828 0.491-1.79 0.768-2.805 0.768v0z"></path>
<path fill="#fff" d="M10.771 18.285l-3.48 3.48c0.273 0.355 0.571 0.695 0.893 1.018 1.95 1.95 4.542 3.023 7.299 3.023v-4.839c-2.001 0-3.755-1.077-4.712-2.682z"></path>
<path fill="#fff" d="M25.806 15.484c0-0.628-0.057-1.257-0.169-1.87l-0.091-0.496h-10.063v4.839h4.897c-0.476 0.946-1.207 1.718-2.092 2.244l3.476 3.476c0.355-0.273 0.695-0.571 1.018-0.894 1.95-1.95 3.023-4.542 3.023-7.299v0z"></path>
<path fill="#fff" d="M19.362 11.606l0.428 0.428 3.422-3.421-0.428-0.428c-1.95-1.95-4.542-3.023-7.299-3.023l-2.419 2.419 2.419 2.419c1.465 0 2.842 0.57 3.878 1.606z"></path>
<path fill="#fff" d="M15.484 10v-4.839c-2.757 0-5.349 1.074-7.299 3.023-0.322 0.322-0.62 0.662-0.893 1.018l3.48 3.48c0.958-1.605 2.712-2.682 4.712-2.682v0z"></path>
</svg>
