<!-- Generated by IcoMoon.io -->
<svg version="1.1" xmlns="http://www.w3.org/2000/svg" width="31" height="32" viewBox="0 0 31 32">
<title>headphone</title>
<path fill="none" stroke="#fff" stroke-linejoin="miter" stroke-linecap="butt" stroke-miterlimit="4" stroke-width="1.2203" d="M24.263 17.454v-1.7c0-2.348-0.914-4.555-2.574-6.214s-3.867-2.574-6.215-2.574c-2.348 0-4.555 0.914-6.215 2.574s-2.574 3.867-2.574 6.214v1.7c-0.882 0.050-1.584 0.783-1.584 1.677v2.633c0 0.927 0.754 1.68 1.68 1.68h0.971c0.069 1.003 0.906 1.797 1.926 1.797 1.065 0 1.931-0.866 1.931-1.931v-5.726c0-1.065-0.866-1.931-1.931-1.931-0.196 0-0.384 0.030-0.562 0.084 0.009-3.498 2.857-6.341 6.357-6.341s6.349 2.843 6.357 6.341c-0.178-0.054-0.367-0.084-0.562-0.084-1.065 0-1.931 0.866-1.931 1.931v5.726c0 1.065 0.866 1.931 1.931 1.931 1.020 0 1.857-0.795 1.926-1.797h0.971c0.927 0 1.68-0.754 1.68-1.68v-2.633c0-0.894-0.702-1.627-1.584-1.677z"></path>
</svg>
