<!-- Generated by IcoMoon.io -->
<svg version="1.1" xmlns="http://www.w3.org/2000/svg" width="32" height="32" viewBox="0 0 32 32">
<title>headphone-solid</title>
<path fill="#fff" stroke="#fff" stroke-linejoin="miter" stroke-linecap="butt" stroke-miterlimit="4" stroke-width="0.6102" d="M24.348 17.454v0.288l0.288 0.016c0.721 0.041 1.296 0.642 1.296 1.373v2.633c0 0.758-0.617 1.375-1.375 1.375h-1.256l-0.020 0.284c-0.058 0.844-0.764 1.513-1.622 1.513-0.896 0-1.626-0.73-1.626-1.626v-5.726c0-0.896 0.73-1.626 1.626-1.626 0.165 0 0.324 0.025 0.473 0.070l0.395 0.12-0.001-0.413c-0.009-3.666-2.994-6.646-6.662-6.646s-6.653 2.979-6.662 6.646l-0.001 0.413 0.395-0.12c0.15-0.046 0.309-0.070 0.473-0.070 0.896 0 1.626 0.73 1.626 1.626v5.726c0 0.896-0.73 1.626-1.626 1.626-0.858 0-1.563-0.669-1.622-1.513l-0.020-0.284h-1.256c-0.758 0-1.375-0.617-1.375-1.375v-2.633c0-0.731 0.575-1.332 1.296-1.373l0.288-0.016v-1.989c0-2.267 0.882-4.396 2.485-5.999s3.732-2.485 5.999-2.485c2.267 0 4.396 0.882 5.999 2.485v0c1.603 1.603 2.485 3.732 2.485 5.999v1.7z"></path>
</svg>
