<!-- Generated by IcoMoon.io -->
<svg version="1.1" xmlns="http://www.w3.org/2000/svg" width="32" height="32" viewBox="0 0 32 32">
<title>mail</title>
<path fill="#fff" d="M26.138 9.514c-2.865 2.4-7.891 6.621-9.368 7.938-0.198 0.178-0.411 0.268-0.632 0.268s-0.433-0.090-0.63-0.266c-1.479-1.318-6.505-5.54-9.37-7.939-0.178-0.149-0.206-0.411-0.061-0.594 0.334-0.421 0.831-0.663 1.365-0.663h17.393c0.533 0 1.031 0.242 1.365 0.663 0.144 0.182 0.117 0.444-0.061 0.593z"></path>
<path fill="#fff" d="M5.954 10.815c0.154-0.071 0.335-0.046 0.464 0.062 3.177 2.664 7.231 6.078 8.507 7.215 0.716 0.639 1.71 0.639 2.427-0.001 1.36-1.212 5.913-5.040 8.506-7.214 0.129-0.108 0.311-0.132 0.464-0.062s0.252 0.223 0.252 0.39v10.817c0 0.949-0.78 1.72-1.739 1.72h-17.393c-0.959 0-1.739-0.772-1.739-1.72v-10.817c0-0.168 0.099-0.32 0.252-0.39z"></path>
</svg>
