<!-- Generated by IcoMoon.io -->
<svg version="1.1" xmlns="http://www.w3.org/2000/svg" width="32" height="32" viewBox="0 0 32 32">
<title>camera</title>
<path fill="#fff" d="M16 21.419c2.494 0 4.516-2.022 4.516-4.516s-2.022-4.516-4.516-4.516-4.516 2.022-4.516 4.516c0 2.494 2.022 4.516 4.516 4.516z"></path>
<path fill="#fff" d="M25.032 9.677h-2.865c-0.362 0-0.702-0.141-0.958-0.397l-1.651-1.651c-0.426-0.426-0.994-0.662-1.597-0.662h-3.923c-0.603 0-1.17 0.235-1.597 0.662l-1.651 1.651c-0.256 0.256-0.596 0.397-0.958 0.397h-2.864c-0.996 0-1.806 0.81-1.806 1.806v11.742c0 0.996 0.81 1.806 1.806 1.806h18.064c0.996 0 1.806-0.81 1.806-1.806v-11.742c0-0.996-0.81-1.806-1.806-1.806zM16 22.323c-2.988 0-5.419-2.431-5.419-5.419s2.431-5.419 5.419-5.419c2.988 0 5.419 2.431 5.419 5.419s-2.431 5.419-5.419 5.419zM23.226 14.194c-0.498 0-0.903-0.405-0.903-0.903s0.405-0.903 0.903-0.903c0.498 0 0.903 0.405 0.903 0.903s-0.405 0.903-0.903 0.903z"></path>
</svg>
