<!-- Generated by IcoMoon.io -->
<svg version="1.1" xmlns="http://www.w3.org/2000/svg" width="32" height="32" viewBox="0 0 32 32">
<title>categories</title>
<path fill="#b4b4b4" d="M16.423 5.423l3.692 3.692c0.51 0.51 0.51 1.336 0 1.846l-3.692 3.692c-0.51 0.51-1.336 0.51-1.846 0l-3.692-3.692c-0.51-0.51-0.51-1.336 0-1.846l3.692-3.692c0.51-0.51 1.336-0.51 1.846 0z"></path>
<path fill="#b4b4b4" d="M9.962 11.885l3.692 3.692c0.51 0.51 0.51 1.336 0 1.846l-3.692 3.692c-0.51 0.51-1.336 0.51-1.846 0l-3.692-3.692c-0.51-0.51-0.51-1.336 0-1.846l3.692-3.692c0.51-0.51 1.336-0.51 1.846 0z"></path>
<path fill="#b4b4b4" d="M22.885 11.885l3.692 3.692c0.51 0.51 0.51 1.336 0 1.846l-3.692 3.692c-0.51 0.51-1.336 0.51-1.846 0l-3.692-3.692c-0.51-0.51-0.51-1.336 0-1.846l3.692-3.692c0.51-0.51 1.336-0.51 1.846 0z"></path>
<path fill="#b4b4b4" d="M16.423 18.346l3.692 3.692c0.51 0.51 0.51 1.336 0 1.846l-3.692 3.692c-0.51 0.51-1.336 0.51-1.846 0l-3.692-3.692c-0.51-0.51-0.51-1.336 0-1.846l3.692-3.692c0.51-0.51 1.336-0.51 1.846 0z"></path>
</svg>
