<!-- Generated by IcoMoon.io -->
<svg version="1.1" xmlns="http://www.w3.org/2000/svg" width="32" height="32" viewBox="0 0 32 32">
<title>key</title>
<path fill="#fff" d="M23.862 7.106c-2.594-2.594-6.815-2.594-9.409 0-1.772 1.772-2.387 4.383-1.62 6.752l-7.493 7.493c-0.113 0.113-0.177 0.267-0.177 0.428v3.422c0 0.334 0.271 0.605 0.605 0.605h3.422c0.161 0 0.314-0.064 0.428-0.177l0.855-0.856c0.131-0.13 0.194-0.314 0.173-0.497l-0.106-0.919 1.273-0.12c0.289-0.027 0.518-0.256 0.545-0.545l0.12-1.273 0.919 0.107c0.171 0.023 0.343-0.034 0.472-0.149s0.203-0.279 0.203-0.452v-1.126h1.106c0.161 0 0.314-0.064 0.428-0.177l1.551-1.531c2.369 0.768 4.935 0.199 6.707-1.574 2.594-2.594 2.594-6.815 0-9.409zM22.151 11.383c-0.708 0.708-1.858 0.708-2.566 0s-0.708-1.858 0-2.566c0.708-0.708 1.858-0.708 2.566 0s0.708 1.858 0 2.566z"></path>
</svg>
