<!-- Generated by IcoMoon.io -->
<svg version="1.1" xmlns="http://www.w3.org/2000/svg" width="31" height="32" viewBox="0 0 31 32">
<title>read</title>
<path fill="none" stroke="#B4B4B4" stroke-linejoin="miter" stroke-linecap="butt" stroke-miterlimit="4" stroke-width="1.2203" d="M16.475 10.571c0-0.133 0.087-0.251 0.214-0.291l7.932-2.479c0.196-0.061 0.396 0.085 0.396 0.291v13.947c0 0.133-0.087 0.251-0.214 0.291l-7.932 2.479c-0.197 0.061-0.396-0.085-0.396-0.291v-13.947z"></path>
<path fill="none" stroke="#B4B4B4" stroke-linejoin="miter" stroke-linecap="butt" stroke-miterlimit="4" stroke-width="1.2203" d="M5.492 22.039c0 0.133 0.087 0.251 0.214 0.291l7.932 2.479c0.197 0.061 0.396-0.085 0.396-0.291v-13.947c0-0.133-0.087-0.251-0.214-0.291l-7.932-2.479c-0.196-0.061-0.396 0.085-0.396 0.291v13.947z"></path>
</svg>
