<!-- Generated by IcoMoon.io -->
<svg version="1.1" xmlns="http://www.w3.org/2000/svg" width="32" height="32" viewBox="0 0 32 32">
<title>user-unknow</title>
<path fill="#fff" d="M16 5.5c-2.908 0-5.273 2.366-5.273 5.273s2.366 5.273 5.273 5.273 5.273-2.366 5.273-5.274c0-2.908-2.366-5.273-5.273-5.273z"></path>
<path fill="#fff" d="M22.561 19.492c-1.444-1.466-3.358-2.273-5.389-2.273h-2.344c-2.031 0-3.946 0.807-5.389 2.273-1.437 1.459-2.228 3.384-2.228 5.422 0 0.324 0.262 0.586 0.586 0.586h16.406c0.324 0 0.586-0.262 0.586-0.586 0-2.038-0.791-3.963-2.228-5.422z"></path>
</svg>
