<svg width="32" height="32" viewBox="0 0 32 32" fill="none" xmlns="http://www.w3.org/2000/svg">
<path d="M22.7442 16.6217L16.9661 22.3999C16.8011 22.5649 16.5813 22.6554 16.3469 22.6554C16.1122 22.6554 15.8925 22.5648 15.7276 22.3999L15.203 21.8752C15.0382 21.7105 14.9474 21.4906 14.9474 21.256C14.9474 21.0216 15.0382 20.7942 15.203 20.6296L18.5739 17.2512H7.86438C7.38152 17.2512 7 16.8732 7 16.3902V15.6484C7 15.1654 7.38152 14.7493 7.86438 14.7493H18.6121L15.2031 11.3521C15.0383 11.1872 14.9475 10.9732 14.9475 10.7386C14.9475 10.5044 15.0383 10.2873 15.2031 10.1225L15.7277 9.5994C15.8927 9.43446 16.1124 9.34458 16.347 9.34458C16.5814 9.34458 16.8013 9.43563 16.9662 9.60057L22.7444 15.3787C22.9097 15.5442 23.0006 15.7651 23 15.9999C23.0005 16.2354 22.9097 16.4565 22.7442 16.6217Z" fill="white"/>
</svg>
