<svg width="31" height="31" viewBox="0 0 31 31" fill="none" xmlns="http://www.w3.org/2000/svg">
<path d="M15.5 20.75C17.9163 20.75 19.875 18.7912 19.875 16.3749C19.875 13.9587 17.9163 11.9999 15.5 11.9999C13.0837 11.9999 11.125 13.9587 11.125 16.3749C11.125 18.7912 13.0837 20.75 15.5 20.75Z" fill="white"/>
<path d="M24.25 9.375H21.475C21.1243 9.375 20.7949 9.2383 20.5466 8.99048L18.947 7.39087C18.5339 6.97772 17.9844 6.75 17.4 6.75H13.6C13.0156 6.75 12.4661 6.97772 12.053 7.39087L10.4534 8.99048C10.2051 9.2383 9.87573 9.375 9.52497 9.375H6.75001C5.78483 9.375 5 10.1598 5 11.125V22.5C5 23.4651 5.78483 24.25 6.75001 24.25H24.25C25.2152 24.25 26 23.4651 26 22.5V11.125C26 10.1598 25.2152 9.375 24.25 9.375ZM15.5 21.625C12.605 21.625 10.25 19.27 10.25 16.375C10.25 13.48 12.605 11.125 15.5 11.125C18.395 11.125 20.75 13.48 20.75 16.375C20.75 19.27 18.395 21.625 15.5 21.625ZM22.5 13.75C22.0177 13.75 21.625 13.3573 21.625 12.875C21.625 12.3926 22.0177 12 22.5 12C22.9824 12 23.375 12.3926 23.375 12.875C23.375 13.3573 22.9824 13.75 22.5 13.75Z" fill="white"/>
</svg>
