<svg width="31" height="32" viewBox="0 0 31 32" fill="none" xmlns="http://www.w3.org/2000/svg">
<path d="M19.5283 14.0247C19.4418 13.8336 19.2517 13.7119 19.0424 13.7119H16.9069V6.77117C16.9069 6.47646 16.6677 6.23727 16.373 6.23727H14.2374C13.9426 6.23727 13.7035 6.47646 13.7035 6.77117V13.7119H11.5679C11.3586 13.7119 11.1685 13.8346 11.082 14.0247C10.9945 14.2159 11.0286 14.439 11.1664 14.5971L14.9037 18.8682C15.0051 18.9846 15.1514 19.0508 15.3052 19.0508C15.4589 19.0508 15.6052 18.9836 15.7066 18.8682L19.4439 14.5971C19.5827 14.4401 19.6148 14.2159 19.5283 14.0247Z" stroke="white" stroke-width="0.915254"/>
<path d="M21.178 19.2034V22.4068H9.43221V19.2034H7.29662V23.4746C7.29662 24.0651 7.77499 24.5424 8.36441 24.5424H22.2458C22.8363 24.5424 23.3136 24.0651 23.3136 23.4746V19.2034H21.178Z" stroke="white" stroke-width="0.915254"/>
</svg>
