<svg width="31" height="32" viewBox="0 0 31 32" fill="none" xmlns="http://www.w3.org/2000/svg">
<g clip-path="url(#clip0)">
<path d="M18.9551 14.9008C18.8741 14.7068 18.6961 14.5833 18.5001 14.5833H16.5001V7.54167C16.5001 7.24267 16.2761 7 16.0001 7H14.0001C13.7241 7 13.5001 7.24267 13.5001 7.54167V14.5833H11.5001C11.3041 14.5833 11.1261 14.7079 11.0451 14.9008C10.9631 15.0947 10.9951 15.3211 11.1241 15.4814L14.6241 19.8148C14.7191 19.9328 14.8561 20 15.0001 20C15.1441 20 15.2811 19.9318 15.3761 19.8148L18.8761 15.4814C19.0061 15.3222 19.0361 15.0947 18.9551 14.9008Z" fill="white"/>
<path d="M22 17C22 20.866 18.866 24 15 24C11.134 24 8 20.866 8 17" stroke="white" stroke-width="2" stroke-linecap="round"/>
</g>
<defs>
<clipPath id="clip0">
<path d="M0.440674 0.745789H30.9491V31.2543H0.440674V0.745789Z" fill="white"/>
</clipPath>
</defs>
</svg>
