<svg width="31" height="31" viewBox="0 0 31 31" fill="none" xmlns="http://www.w3.org/2000/svg">
<g clip-path="url(#clip0)">
<path d="M0 0H30.5085V30.5085H0V0Z" fill="#EB4132"/>
<rect width="31" height="31" fill="#EB4132"/>
<path d="M9.6875 15C9.6875 14.0091 9.96051 13.0809 10.4348 12.286V8.91464H7.0634C5.72531 10.6525 5 12.7704 5 15C5 17.2296 5.72531 19.3475 7.0634 21.0853H10.4348V17.7139C9.96051 16.9191 9.6875 15.9909 9.6875 15V15Z" fill="white"/>
<path d="M15 20.3125L12.6562 22.6562L15 25C17.2296 25 19.3475 24.2747 21.0854 22.9366V19.5688H17.7175C16.9158 20.0448 15.9836 20.3125 15 20.3125V20.3125Z" fill="white"/>
<path d="M10.4348 17.7139L7.06339 21.0853C7.32831 21.4294 7.61679 21.7589 7.92894 22.0711C9.81769 23.9598 12.3289 25 15 25V20.3125C13.0616 20.3125 11.3626 19.2687 10.4348 17.7139Z" fill="white"/>
<path d="M25 15C25 14.3916 24.9449 13.7821 24.8363 13.1884L24.7483 12.708H15V17.3955H19.7442C19.2835 18.312 18.5752 19.0596 17.7175 19.5689L21.0853 22.9367C21.4294 22.6718 21.7589 22.3833 22.0711 22.0711C23.9598 20.1823 25 17.6711 25 15V15Z" fill="white"/>
<path d="M18.7565 11.2435L19.1708 11.6578L22.4854 8.34324L22.0711 7.92895C20.1823 6.0402 17.6711 5 15 5L12.6562 7.34375L15 9.6875C16.419 9.6875 17.7531 10.2401 18.7565 11.2435Z" fill="white"/>
<path d="M15 9.6875V5C12.3289 5 9.81769 6.0402 7.9289 7.92891C7.61675 8.24105 7.32828 8.57055 7.06335 8.91465L10.4348 12.2861C11.3626 10.7312 13.0616 9.6875 15 9.6875V9.6875Z" fill="white"/>
</g>
<defs>
<clipPath id="clip0">
<path d="M0 0H30.5085V30.5085H0V0Z" fill="white"/>
</clipPath>
</defs>
</svg>
