<svg width="32" height="32" viewBox="0 0 32 32" fill="none" xmlns="http://www.w3.org/2000/svg">
<path d="M24.348 17.4545V17.7428L24.6358 17.7591C25.3573 17.8001 25.9322 18.4006 25.9322 19.132V21.7647C25.9322 22.5228 25.3149 23.1401 24.5568 23.1401H23.5853H23.3006L23.281 23.4242C23.2228 24.2681 22.5174 24.9373 21.6593 24.9373C20.763 24.9373 20.0332 24.2075 20.0332 23.3112V17.5856C20.0332 16.6893 20.763 15.9595 21.6593 15.9595C21.8241 15.9595 21.9829 15.9843 22.1327 16.03L22.5278 16.1505L22.5268 15.7374C22.5177 12.0711 19.5328 9.09161 15.8644 9.09161C12.196 9.09161 9.21113 12.0711 9.202 15.7374L9.20097 16.1505L9.59608 16.03C9.7459 15.9843 9.90467 15.9595 10.0695 15.9595C10.9658 15.9595 11.6955 16.6893 11.6955 17.5856V23.3112C11.6955 24.2076 10.9658 24.9373 10.0695 24.9373C9.21142 24.9373 8.506 24.2681 8.44782 23.4242L8.42823 23.1401H8.14345H7.17197C6.41388 23.1401 5.7966 22.5228 5.7966 21.7647V19.132C5.7966 18.4006 6.37153 17.8001 7.09302 17.7591L7.38082 17.7428V17.4545V15.7542C7.38082 13.4876 8.26287 11.3582 9.8656 9.75546C11.4684 8.15268 13.5978 7.27063 15.8644 7.27063C18.1311 7.27063 20.2605 8.15268 21.8632 9.75545L22.0789 9.53973L21.8632 9.75545C23.4659 11.3582 24.348 13.4876 24.348 15.7542V17.4545Z" fill="white" stroke="white" stroke-width="0.610169"/>
</svg>
