<svg width="31" height="32" viewBox="0 0 31 32" fill="none" xmlns="http://www.w3.org/2000/svg">
<path d="M24.2632 17.4545V15.7542C24.2632 13.4067 23.349 11.1997 21.6891 9.53973C20.0291 7.87974 17.8221 6.96555 15.4746 6.96555C13.127 6.96555 10.92 7.87974 9.26004 9.53973C7.6001 11.1997 6.6859 13.4067 6.6859 15.7542V17.4545C5.80396 17.5046 5.10168 18.2377 5.10168 19.132V21.7647C5.10168 22.6913 5.85554 23.4452 6.78214 23.4452H7.75362C7.82275 24.4477 8.65987 25.2424 9.67962 25.2424C10.7445 25.2424 11.6108 24.3761 11.6108 23.3112V17.5856C11.6108 16.5208 10.7445 15.6544 9.67962 15.6544C9.48403 15.6544 9.29529 15.6839 9.11725 15.7382C9.12596 12.24 11.9744 9.39669 15.4746 9.39669C18.9748 9.39669 21.8232 12.24 21.8319 15.7382C21.6538 15.6839 21.4651 15.6544 21.2695 15.6544C20.2047 15.6544 19.3383 16.5208 19.3383 17.5856V23.3112C19.3383 24.376 20.2047 25.2424 21.2695 25.2424C22.2893 25.2424 23.1264 24.4477 23.1955 23.4452H24.167C25.0936 23.4452 25.8474 22.6913 25.8474 21.7647V19.132C25.8475 18.2377 25.1452 17.5046 24.2632 17.4545Z" stroke="white" stroke-width="1.22034"/>
</svg>
