<svg width="31" height="31" viewBox="0 0 31 31" fill="none" xmlns="http://www.w3.org/2000/svg">
<path d="M23.1161 6.88434C20.603 4.37121 16.514 4.37125 14.0009 6.88437C12.2843 8.60098 11.6881 11.1307 12.4314 13.4258L5.17268 20.6845C5.0628 20.7944 5.001 20.9432 5.001 21.0988V24.4136C5.001 24.7375 5.26307 24.9995 5.58694 24.9995H8.9017C9.05733 24.9995 9.20612 24.9377 9.31596 24.8278L10.1445 23.9987C10.271 23.8723 10.3328 23.6949 10.3122 23.5169L10.2092 22.6266L11.4428 22.5104C11.7232 22.4841 11.9447 22.2626 11.971 21.9822L12.0872 20.7485L12.9775 20.8521C13.1429 20.8744 13.3094 20.8189 13.4347 20.7079C13.5594 20.5964 13.631 20.4373 13.631 20.2702V19.1792H14.7021C14.8578 19.1792 15.0065 19.1174 15.1164 19.0075L16.619 17.5248C18.9135 18.2687 21.3995 17.7173 23.1161 15.9996C25.6292 13.4865 25.6292 9.39746 23.1161 6.88434ZM21.4585 11.0277C20.773 11.7132 19.6583 11.7132 18.9728 11.0277C18.2873 10.3422 18.2873 9.22754 18.9728 8.54203C19.6583 7.85652 20.773 7.85652 21.4585 8.54203C22.144 9.22754 22.144 10.3422 21.4585 11.0277Z" fill="white"/>
</svg>
