<svg width="31" height="31" viewBox="0 0 31 31" fill="none" xmlns="http://www.w3.org/2000/svg">
<path d="M25.3212 9.21703C22.5461 11.5417 17.6767 15.6314 16.2456 16.9066C16.0534 17.0788 15.8474 17.1663 15.6334 17.1663C15.42 17.1663 15.2142 17.0796 15.0226 16.9083C13.5902 15.6318 8.72079 11.5417 5.94569 9.21703C5.77292 9.07258 5.74658 8.81867 5.88646 8.64207C6.20981 8.23398 6.69192 8 7.20863 8H24.0583C24.5749 8 25.0571 8.23398 25.3804 8.64211C25.5203 8.81867 25.4939 9.07258 25.3212 9.21703Z" fill="white"/>
<path d="M5.76798 10.4768C5.9173 10.4081 6.09296 10.432 6.2172 10.537C9.29468 13.1176 13.2224 16.4253 14.4582 17.5268C15.1518 18.1461 16.1144 18.1461 16.8096 17.5259C18.1268 16.352 22.5375 12.6431 25.0497 10.537C25.1748 10.432 25.3508 10.4088 25.4989 10.4768C25.6478 10.5452 25.7432 10.6925 25.7432 10.8548V21.3333C25.7432 22.2525 24.9876 23 24.0583 23H7.20859C6.27931 23 5.52365 22.2525 5.52365 21.3333V10.8548C5.52365 10.6925 5.6191 10.5448 5.76798 10.4768Z" fill="white"/>
</svg>
