<svg width="32" height="32" viewBox="0 0 32 32" fill="none" xmlns="http://www.w3.org/2000/svg">
<path d="M16.4746 10.5712C16.4746 10.1709 16.7347 9.81699 17.1168 9.69759L25.049 7.21877C25.6384 7.0346 26.2373 7.4749 26.2373 8.09236V22.039C26.2373 22.4393 25.9771 22.7932 25.595 22.9126L17.6628 25.3914C17.0735 25.5755 16.4746 25.1352 16.4746 24.5178V10.5712Z" fill="white"/>
<path d="M5.49152 22.039C5.49152 22.4393 5.75168 22.7932 6.13377 22.9126L14.066 25.3914C14.6553 25.5756 15.2542 25.1353 15.2542 24.5178V10.5712C15.2542 10.1709 14.9941 9.81702 14.612 9.69761L6.67977 7.2188C6.09041 7.03462 5.49152 7.47492 5.49152 8.09239V22.039Z" fill="white"/>
</svg>
