<svg width="31" height="32" viewBox="0 0 31 32" fill="none" xmlns="http://www.w3.org/2000/svg">
<path d="M16.4746 10.5712C16.4746 10.4377 16.5613 10.3198 16.6887 10.28L24.6209 7.80117C24.8173 7.73977 25.017 7.88654 25.017 8.09236V22.039C25.017 22.1724 24.9302 22.2904 24.8029 22.3302L16.8707 24.809C16.6742 24.8704 16.4746 24.7236 16.4746 24.5178V10.5712Z" stroke="white" stroke-width="1.22034"/>
<path d="M5.49152 22.039C5.49152 22.1724 5.57824 22.2904 5.7056 22.3302L13.6378 24.809C13.8343 24.8704 14.0339 24.7236 14.0339 24.5178V10.5712C14.0339 10.4378 13.9472 10.3198 13.8198 10.28L5.8876 7.80119C5.69115 7.7398 5.49152 7.88657 5.49152 8.09239V22.039Z" stroke="white" stroke-width="1.22034"/>
</svg>
