<svg aria-hidden="true" style="position: absolute; width: 0; height: 0; overflow: hidden;" version="1.1" xmlns="http://www.w3.org/2000/svg" xmlns:xlink="http://www.w3.org/1999/xlink">
<defs>
<symbol id="icon-read-null" viewBox="0 0 32 32">
<path fill="none" stroke="#fff" style="stroke: var(--color1, #fff)" stroke-linejoin="miter" stroke-linecap="butt" stroke-miterlimit="4" stroke-width="1.2597" d="M17.227 9.842l8.188-2.559c0.203-0.063 0.409 0.088 0.409 0.301v14.396c0 0.138-0.090 0.259-0.221 0.301l-8.188 2.559c-0.203 0.063-0.409-0.088-0.409-0.301v-14.396c0-0.138 0.090-0.259 0.221-0.301z"></path>
<path fill="none" stroke="#fff" style="stroke: var(--color1, #fff)" stroke-linejoin="miter" stroke-linecap="butt" stroke-miterlimit="4" stroke-width="1.2597" d="M5.89 22.281l8.188 2.559c0.203 0.063 0.409-0.088 0.409-0.301v-14.396c0-0.138-0.089-0.259-0.221-0.301l-8.188-2.559c-0.203-0.063-0.409 0.088-0.409 0.301v14.396c0 0.138 0.090 0.259 0.221 0.301z"></path>
<path fill="none" stroke="#fff" style="stroke: var(--color1, #fff)" stroke-linejoin="bevel" stroke-linecap="round" stroke-miterlimit="4" stroke-width="2.0645" d="M28.903 15.484h-26.839"></path>
</symbol>
<symbol id="icon-headphone-null" viewBox="0 0 32 32">
<path fill="none" stroke="#fff" style="stroke: var(--color1, #fff)" stroke-linejoin="miter" stroke-linecap="butt" stroke-miterlimit="4" stroke-width="1.2597" d="M25.046 17.248v-1.755c0-2.423-0.944-4.702-2.657-6.415s-3.992-2.657-6.415-2.657-4.702 0.944-6.415 2.657c-1.713 1.713-2.657 3.992-2.657 6.415v1.755c-0.91 0.052-1.635 0.808-1.635 1.732v2.718c0 0.956 0.778 1.735 1.735 1.735h1.003c0.071 1.035 0.935 1.855 1.988 1.855 1.099 0 1.993-0.894 1.993-1.993v-5.91c0-1.099-0.894-1.994-1.993-1.994-0.202 0-0.397 0.030-0.581 0.086 0.009-3.611 2.949-6.546 6.562-6.546s6.553 2.935 6.562 6.546c-0.184-0.056-0.379-0.086-0.581-0.086-1.099 0-1.994 0.894-1.994 1.994v5.91c0 1.099 0.894 1.994 1.994 1.994 1.053 0 1.917-0.82 1.988-1.855h1.003c0.956 0 1.735-0.778 1.735-1.735v-2.718c0-0.923-0.725-1.68-1.635-1.732z"></path>
<path fill="none" stroke="#fff" style="stroke: var(--color1, #fff)" stroke-linejoin="bevel" stroke-linecap="round" stroke-miterlimit="4" stroke-width="2.0645" d="M28.903 15.484h-26.839"></path>
</symbol>
</defs>
</svg>
