<svg width="32" height="31" viewBox="0 0 32 31" fill="none" xmlns="http://www.w3.org/2000/svg">
<path d="M16 5C13.0922 5 10.7266 7.36566 10.7266 10.2734C10.7266 13.1812 13.0922 15.5469 16 15.5469C18.9078 15.5469 21.2734 13.1812 21.2734 10.2734C21.2734 7.36566 18.9078 5 16 5Z" fill="white"/>
<path d="M22.5612 18.992C21.1174 17.5261 19.2035 16.7188 17.1719 16.7188H14.8281C12.7966 16.7188 10.8826 17.5261 9.43883 18.992C8.00215 20.4507 7.21094 22.3763 7.21094 24.4141C7.21094 24.7377 7.47328 25 7.79688 25H24.2031C24.5267 25 24.7891 24.7377 24.7891 24.4141C24.7891 22.3763 23.9979 20.4507 22.5612 18.992Z" fill="white"/>
</svg>
