<svg width="32" height="31" viewBox="0 0 32 31" fill="none" xmlns="http://www.w3.org/2000/svg">
<path fill-rule="evenodd" clip-rule="evenodd" d="M22.5711 7.92892C21.9853 7.34313 21.0355 7.34313 20.4497 7.92892L15.5 12.8787L10.5503 7.92892C9.96447 7.34313 9.01472 7.34313 8.42893 7.92892C7.84315 8.5147 7.84315 9.46445 8.42893 10.0502L13.3787 15L8.42893 19.9497C7.84315 20.5355 7.84315 21.4853 8.42893 22.0711C9.01472 22.6568 9.96447 22.6568 10.5503 22.0711L15.5 17.1213L20.4497 22.0711C21.0355 22.6568 21.9853 22.6568 22.5711 22.0711C23.1569 21.4853 23.1569 20.5355 22.5711 19.9497L17.6213 15L22.5711 10.0502C23.1569 9.46445 23.1569 8.5147 22.5711 7.92892Z" fill="white"/>
</svg>
