<svg aria-hidden="true" style="position: absolute; width: 0; height: 0; overflow: hidden;" version="1.1" xmlns="http://www.w3.org/2000/svg" xmlns:xlink="http://www.w3.org/1999/xlink">
<defs>
<symbol id="icon-arrow-down" viewBox="0 0 48 32">
<path fill="none" stroke="#b4b4b4" style="stroke: var(--color1, #b4b4b4)" stroke-linejoin="round" stroke-linecap="round" stroke-miterlimit="4" stroke-width="10.6667" d="M5.333 7.489l18.667 16 18.667-16"></path>
</symbol>
<symbol id="icon-search" viewBox="0 0 32 32">
<path fill="#b4b4b4" style="fill: var(--color1, #b4b4b4)" d="M20.672 17.605c2.726-3.849 1.814-9.18-2.035-11.905s-9.18-1.814-11.905 2.036c-2.725 3.849-1.814 9.179 2.036 11.905 2.748 1.945 6.38 2.095 9.278 0.384l6.297 6.259c0.68 0.716 1.811 0.744 2.527 0.064s0.744-1.81 0.065-2.526c-0.021-0.023-0.042-0.044-0.065-0.065l-6.197-6.151zM13.697 18.189c-3.042 0.001-5.508-2.464-5.51-5.506-0.001-3.042 2.464-5.508 5.506-5.509 3.038-0.001 5.503 2.459 5.509 5.497 0.005 3.043-2.458 5.513-5.501 5.518-0.001 0-0.002 0-0.004 0z"></path>
</symbol>
<symbol id="icon-arrow" viewBox="0 0 32 32">
<path fill="#fff" style="fill: var(--color2, #fff)" d="M22.744 16.622l-5.778 5.778c-0.165 0.165-0.385 0.256-0.619 0.256s-0.454-0.091-0.619-0.256l-0.525-0.525c-0.165-0.165-0.256-0.385-0.256-0.619s0.091-0.462 0.256-0.626l3.371-3.378h-10.71c-0.483 0-0.864-0.378-0.864-0.861v-0.742c0-0.483 0.382-0.899 0.864-0.899h10.748l-3.409-3.397c-0.165-0.165-0.256-0.379-0.256-0.614s0.091-0.451 0.256-0.616l0.525-0.523c0.165-0.165 0.385-0.255 0.619-0.255s0.454 0.091 0.619 0.256l5.778 5.778c0.165 0.165 0.256 0.386 0.256 0.621 0 0.236-0.090 0.457-0.256 0.622z"></path>
</symbol>
<symbol id="icon-bookmark-solid" viewBox="0 0 31 32">
<path fill="#fff" style="fill: var(--color2, #fff)" d="M10.407 7.702c0-0.135 0.109-0.244 0.244-0.244h10.19c0.135 0 0.244 0.109 0.244 0.244v16.333c0 0.205-0.237 0.318-0.397 0.191l-4.79-3.832c-0.089-0.071-0.216-0.071-0.305 0l-4.79 3.832c-0.16 0.128-0.396 0.014-0.396-0.191v-16.333z"></path>
</symbol>
<symbol id="icon-bookmark" viewBox="0 0 32 32">
<path fill="none" stroke="#fff" style="stroke: var(--color2, #fff)" stroke-linejoin="miter" stroke-linecap="butt" stroke-miterlimit="4" stroke-width="1.2203" d="M11.186 23.273v-15.205h9.458v15.205l-4.195-3.356c-0.312-0.25-0.755-0.25-1.067 0l-4.195 3.356zM10.592 23.749c0-0 0-0 0.001-0l-0.001 0z"></path>
</symbol>
<symbol id="icon-camera" viewBox="0 0 32 32">
<path fill="#fff" style="fill: var(--color2, #fff)" d="M16 21.419c2.494 0 4.516-2.022 4.516-4.516s-2.022-4.516-4.516-4.516-4.516 2.022-4.516 4.516c0 2.494 2.022 4.516 4.516 4.516z"></path>
<path fill="#fff" style="fill: var(--color2, #fff)" d="M25.032 9.677h-2.865c-0.362 0-0.702-0.141-0.958-0.397l-1.651-1.651c-0.426-0.426-0.994-0.662-1.597-0.662h-3.923c-0.603 0-1.17 0.235-1.597 0.662l-1.651 1.651c-0.256 0.256-0.596 0.397-0.958 0.397h-2.864c-0.996 0-1.806 0.81-1.806 1.806v11.742c0 0.996 0.81 1.806 1.806 1.806h18.064c0.996 0 1.806-0.81 1.806-1.806v-11.742c0-0.996-0.81-1.806-1.806-1.806zM16 22.323c-2.988 0-5.419-2.431-5.419-5.419s2.431-5.419 5.419-5.419c2.988 0 5.419 2.431 5.419 5.419s-2.431 5.419-5.419 5.419zM23.226 14.194c-0.498 0-0.903-0.405-0.903-0.903s0.405-0.903 0.903-0.903c0.498 0 0.903 0.405 0.903 0.903s-0.405 0.903-0.903 0.903z"></path>
</symbol>
<symbol id="icon-categories" viewBox="0 0 32 32">
<path fill="#b4b4b4" style="fill: var(--color1, #b4b4b4)" d="M16.423 5.423l3.692 3.692c0.51 0.51 0.51 1.336 0 1.846l-3.692 3.692c-0.51 0.51-1.336 0.51-1.846 0l-3.692-3.692c-0.51-0.51-0.51-1.336 0-1.846l3.692-3.692c0.51-0.51 1.336-0.51 1.846 0z"></path>
<path fill="#b4b4b4" style="fill: var(--color1, #b4b4b4)" d="M9.962 11.885l3.692 3.692c0.51 0.51 0.51 1.336 0 1.846l-3.692 3.692c-0.51 0.51-1.336 0.51-1.846 0l-3.692-3.692c-0.51-0.51-0.51-1.336 0-1.846l3.692-3.692c0.51-0.51 1.336-0.51 1.846 0z"></path>
<path fill="#b4b4b4" style="fill: var(--color1, #b4b4b4)" d="M22.885 11.885l3.692 3.692c0.51 0.51 0.51 1.336 0 1.846l-3.692 3.692c-0.51 0.51-1.336 0.51-1.846 0l-3.692-3.692c-0.51-0.51-0.51-1.336 0-1.846l3.692-3.692c0.51-0.51 1.336-0.51 1.846 0z"></path>
<path fill="#b4b4b4" style="fill: var(--color1, #b4b4b4)" d="M16.423 18.346l3.692 3.692c0.51 0.51 0.51 1.336 0 1.846l-3.692 3.692c-0.51 0.51-1.336 0.51-1.846 0l-3.692-3.692c-0.51-0.51-0.51-1.336 0-1.846l3.692-3.692c0.51-0.51 1.336-0.51 1.846 0z"></path>
</symbol>
<symbol id="icon-download" viewBox="0 0 31 32">
<path fill="none" stroke="#fff" style="stroke: var(--color2, #fff)" stroke-linejoin="miter" stroke-linecap="butt" stroke-miterlimit="4" stroke-width="0.9153" d="M19.528 14.025c-0.087-0.191-0.277-0.313-0.486-0.313h-2.136v-6.941c0-0.295-0.239-0.534-0.534-0.534h-2.136c-0.295 0-0.534 0.239-0.534 0.534v6.941h-2.136c-0.209 0-0.399 0.123-0.486 0.313-0.088 0.191-0.053 0.414 0.084 0.572l3.737 4.271c0.101 0.116 0.248 0.183 0.402 0.183s0.3-0.067 0.401-0.183l3.737-4.271c0.139-0.157 0.171-0.381 0.084-0.572z"></path>
<path fill="none" stroke="#fff" style="stroke: var(--color2, #fff)" stroke-linejoin="miter" stroke-linecap="butt" stroke-miterlimit="4" stroke-width="0.9153" d="M21.178 19.203v3.203h-11.746v-3.203h-2.136v4.271c0 0.59 0.478 1.068 1.068 1.068h13.881c0.59 0 1.068-0.477 1.068-1.068v-4.271h-2.136z"></path>
</symbol>
<symbol id="icon-download-solid" viewBox="0 0 31 32">
<path fill="#fff" style="fill: var(--color2, #fff)" d="M18.955 14.901c-0.081-0.194-0.259-0.318-0.455-0.318h-2v-7.042c0-0.299-0.224-0.542-0.5-0.542h-2c-0.276 0-0.5 0.243-0.5 0.542v7.042h-2c-0.196 0-0.374 0.125-0.455 0.318-0.082 0.194-0.050 0.42 0.079 0.581l3.5 4.333c0.095 0.118 0.232 0.185 0.376 0.185s0.281-0.068 0.376-0.185l3.5-4.333c0.13-0.159 0.16-0.387 0.079-0.581z"></path>
<path fill="none" stroke="#fff" style="stroke: var(--color2, #fff)" stroke-linejoin="miter" stroke-linecap="round" stroke-miterlimit="4" stroke-width="2" d="M22 17c0 3.866-3.134 7-7 7s-7-3.134-7-7"></path>
</symbol>
<symbol id="icon-facebook" viewBox="0 0 32 32">
<path fill="#3b5999" style="fill: var(--color3, #3b5999)" d="M0 0h32v32h-32v-32z"></path>
<path fill="#fff" style="fill: var(--color2, #fff)" d="M19.604 8.932h2.073v-3.611c-0.358-0.049-1.588-0.16-3.020-0.16-6.559 0-4.774 7.428-5.035 8.516h-3.299v4.037h3.298v10.157h4.044v-10.156h3.165l0.502-4.037h-3.668c0.178-2.672-0.72-4.746 1.941-4.746z"></path>
</symbol>
<symbol id="icon-gmail" viewBox="0 0 32 32">
<path fill="#eb4132" style="fill: var(--color4, #eb4132)" d="M0 0h31.493v31.493h-31.493v-31.493z"></path>
<path fill="#eb4132" style="fill: var(--color4, #eb4132)" d="M0 0h32v32h-32v-32z"></path>
<path fill="#fff" style="fill: var(--color2, #fff)" d="M10 15.484c0-1.023 0.282-1.981 0.771-2.802v-3.48h-3.48c-1.381 1.794-2.13 3.98-2.13 6.282s0.749 4.488 2.13 6.282h3.48v-3.48c-0.49-0.82-0.771-1.779-0.771-2.801v0z"></path>
<path fill="#fff" style="fill: var(--color2, #fff)" d="M15.484 20.968l-2.419 2.419 2.419 2.419c2.302 0 4.488-0.749 6.282-2.13v-3.476h-3.477c-0.828 0.491-1.79 0.768-2.805 0.768v0z"></path>
<path fill="#fff" style="fill: var(--color2, #fff)" d="M10.771 18.285l-3.48 3.48c0.273 0.355 0.571 0.695 0.893 1.018 1.95 1.95 4.542 3.023 7.299 3.023v-4.839c-2.001 0-3.755-1.077-4.712-2.682z"></path>
<path fill="#fff" style="fill: var(--color2, #fff)" d="M25.806 15.484c0-0.628-0.057-1.257-0.169-1.87l-0.091-0.496h-10.063v4.839h4.897c-0.476 0.946-1.207 1.718-2.092 2.244l3.476 3.476c0.355-0.273 0.695-0.571 1.018-0.894 1.95-1.95 3.023-4.542 3.023-7.299v0z"></path>
<path fill="#fff" style="fill: var(--color2, #fff)" d="M19.362 11.606l0.428 0.428 3.422-3.421-0.428-0.428c-1.95-1.95-4.542-3.023-7.299-3.023l-2.419 2.419 2.419 2.419c1.465 0 2.842 0.57 3.878 1.606z"></path>
<path fill="#fff" style="fill: var(--color2, #fff)" d="M15.484 10v-4.839c-2.757 0-5.349 1.074-7.299 3.023-0.322 0.322-0.62 0.662-0.893 1.018l3.48 3.48c0.958-1.605 2.712-2.682 4.712-2.682v0z"></path>
</symbol>
<symbol id="icon-headphone" viewBox="0 0 31 32">
<path fill="none" stroke="#fff" style="stroke: var(--color2, #fff)" stroke-linejoin="miter" stroke-linecap="butt" stroke-miterlimit="4" stroke-width="1.2203" d="M24.263 17.454v-1.7c0-2.348-0.914-4.555-2.574-6.214s-3.867-2.574-6.215-2.574c-2.348 0-4.555 0.914-6.215 2.574s-2.574 3.867-2.574 6.214v1.7c-0.882 0.050-1.584 0.783-1.584 1.677v2.633c0 0.927 0.754 1.68 1.68 1.68h0.971c0.069 1.003 0.906 1.797 1.926 1.797 1.065 0 1.931-0.866 1.931-1.931v-5.726c0-1.065-0.866-1.931-1.931-1.931-0.196 0-0.384 0.030-0.562 0.084 0.009-3.498 2.857-6.341 6.357-6.341s6.349 2.843 6.357 6.341c-0.178-0.054-0.367-0.084-0.562-0.084-1.065 0-1.931 0.866-1.931 1.931v5.726c0 1.065 0.866 1.931 1.931 1.931 1.020 0 1.857-0.795 1.926-1.797h0.971c0.927 0 1.68-0.754 1.68-1.68v-2.633c0-0.894-0.702-1.627-1.584-1.677z"></path>
</symbol>
<symbol id="icon-headphone-solid" viewBox="0 0 32 32">
<path fill="#fff" style="fill: var(--color2, #fff); stroke: var(--color2, #fff)" stroke="#fff" stroke-linejoin="miter" stroke-linecap="butt" stroke-miterlimit="4" stroke-width="0.6102" d="M24.348 17.454v0.288l0.288 0.016c0.721 0.041 1.296 0.642 1.296 1.373v2.633c0 0.758-0.617 1.375-1.375 1.375h-1.256l-0.020 0.284c-0.058 0.844-0.764 1.513-1.622 1.513-0.896 0-1.626-0.73-1.626-1.626v-5.726c0-0.896 0.73-1.626 1.626-1.626 0.165 0 0.324 0.025 0.473 0.070l0.395 0.12-0.001-0.413c-0.009-3.666-2.994-6.646-6.662-6.646s-6.653 2.979-6.662 6.646l-0.001 0.413 0.395-0.12c0.15-0.046 0.309-0.070 0.473-0.070 0.896 0 1.626 0.73 1.626 1.626v5.726c0 0.896-0.73 1.626-1.626 1.626-0.858 0-1.563-0.669-1.622-1.513l-0.020-0.284h-1.256c-0.758 0-1.375-0.617-1.375-1.375v-2.633c0-0.731 0.575-1.332 1.296-1.373l0.288-0.016v-1.989c0-2.267 0.882-4.396 2.485-5.999s3.732-2.485 5.999-2.485c2.267 0 4.396 0.882 5.999 2.485v0c1.603 1.603 2.485 3.732 2.485 5.999v1.7z"></path>
</symbol>
<symbol id="icon-key" viewBox="0 0 32 32">
<path fill="#fff" style="fill: var(--color2, #fff)" d="M23.862 7.106c-2.594-2.594-6.815-2.594-9.409 0-1.772 1.772-2.387 4.383-1.62 6.752l-7.493 7.493c-0.113 0.113-0.177 0.267-0.177 0.428v3.422c0 0.334 0.271 0.605 0.605 0.605h3.422c0.161 0 0.314-0.064 0.428-0.177l0.855-0.856c0.131-0.13 0.194-0.314 0.173-0.497l-0.106-0.919 1.273-0.12c0.289-0.027 0.518-0.256 0.545-0.545l0.12-1.273 0.919 0.107c0.171 0.023 0.343-0.034 0.472-0.149s0.203-0.279 0.203-0.452v-1.126h1.106c0.161 0 0.314-0.064 0.428-0.177l1.551-1.531c2.369 0.768 4.935 0.199 6.707-1.574 2.594-2.594 2.594-6.815 0-9.409zM22.151 11.383c-0.708 0.708-1.858 0.708-2.566 0s-0.708-1.858 0-2.566c0.708-0.708 1.858-0.708 2.566 0s0.708 1.858 0 2.566z"></path>
</symbol>
<symbol id="icon-log-out" viewBox="0 0 32 32">
<path fill="none" stroke="#e2e2e2" style="stroke: var(--color5, #e2e2e2)" stroke-linejoin="bevel" stroke-linecap="round" stroke-miterlimit="4" stroke-width="2" d="M18.79 10c2.507 1.347 4.21 3.988 4.21 7.025 0 4.404-3.582 7.975-8 7.975s-8-3.57-8-7.975c0-3.038 1.704-5.679 4.21-7.025"></path>
<path fill="none" stroke="#e2e2e2" style="stroke: var(--color5, #e2e2e2)" stroke-linejoin="miter" stroke-linecap="round" stroke-miterlimit="4" stroke-width="2" d="M15 9v5"></path>
</symbol>
<symbol id="icon-mail" viewBox="0 0 32 32">
<path fill="#fff" style="fill: var(--color2, #fff)" d="M26.138 9.514c-2.865 2.4-7.891 6.621-9.368 7.938-0.198 0.178-0.411 0.268-0.632 0.268s-0.433-0.090-0.63-0.266c-1.479-1.318-6.505-5.54-9.37-7.939-0.178-0.149-0.206-0.411-0.061-0.594 0.334-0.421 0.831-0.663 1.365-0.663h17.393c0.533 0 1.031 0.242 1.365 0.663 0.144 0.182 0.117 0.444-0.061 0.593z"></path>
<path fill="#fff" style="fill: var(--color2, #fff)" d="M5.954 10.815c0.154-0.071 0.335-0.046 0.464 0.062 3.177 2.664 7.231 6.078 8.507 7.215 0.716 0.639 1.71 0.639 2.427-0.001 1.36-1.212 5.913-5.040 8.506-7.214 0.129-0.108 0.311-0.132 0.464-0.062s0.252 0.223 0.252 0.39v10.817c0 0.949-0.78 1.72-1.739 1.72h-17.393c-0.959 0-1.739-0.772-1.739-1.72v-10.817c0-0.168 0.099-0.32 0.252-0.39z"></path>
</symbol>
<symbol id="icon-read" viewBox="0 0 31 32">
<path fill="none" stroke="#B4B4B4" style="stroke: var(--color2, #B4B4B4)" stroke-linejoin="miter" stroke-linecap="butt" stroke-miterlimit="4" stroke-width="1.2203" d="M16.475 10.571c0-0.133 0.087-0.251 0.214-0.291l7.932-2.479c0.196-0.061 0.396 0.085 0.396 0.291v13.947c0 0.133-0.087 0.251-0.214 0.291l-7.932 2.479c-0.197 0.061-0.396-0.085-0.396-0.291v-13.947z"></path>
<path fill="none" stroke="#B4B4B4" style="stroke: var(--color2, #B4B4B4)" stroke-linejoin="miter" stroke-linecap="butt" stroke-miterlimit="4" stroke-width="1.2203" d="M5.492 22.039c0 0.133 0.087 0.251 0.214 0.291l7.932 2.479c0.197 0.061 0.396-0.085 0.396-0.291v-13.947c0-0.133-0.087-0.251-0.214-0.291l-7.932-2.479c-0.196-0.061-0.396 0.085-0.396 0.291v13.947z"></path>
</symbol>
<symbol id="icon-read-solid" viewBox="0 0 32 32">
<path fill="#fff" style="fill: var(--color2, #fff)" d="M16.475 10.571c0-0.4 0.26-0.754 0.642-0.874l7.932-2.479c0.589-0.184 1.188 0.256 1.188 0.874v13.947c0 0.4-0.26 0.754-0.642 0.874l-7.932 2.479c-0.589 0.184-1.188-0.256-1.188-0.874v-13.947z"></path>
<path fill="#fff" style="fill: var(--color2, #fff)" d="M5.492 22.039c0 0.4 0.26 0.754 0.642 0.874l7.932 2.479c0.589 0.184 1.188-0.256 1.188-0.874v-13.947c0-0.4-0.26-0.754-0.642-0.874l-7.932-2.479c-0.589-0.184-1.188 0.256-1.188 0.874v13.947z"></path>
</symbol>
<symbol id="icon-user-unknow" viewBox="0 0 32 32">
<path fill="#fff" style="fill: var(--color2, #fff)" d="M16 5.5c-2.908 0-5.273 2.366-5.273 5.273s2.366 5.273 5.273 5.273 5.273-2.366 5.273-5.274c0-2.908-2.366-5.273-5.273-5.273z"></path>
<path fill="#fff" style="fill: var(--color2, #fff)" d="M22.561 19.492c-1.444-1.466-3.358-2.273-5.389-2.273h-2.344c-2.031 0-3.946 0.807-5.389 2.273-1.437 1.459-2.228 3.384-2.228 5.422 0 0.324 0.262 0.586 0.586 0.586h16.406c0.324 0 0.586-0.262 0.586-0.586 0-2.038-0.791-3.963-2.228-5.422z"></path>
</symbol>
<symbol id="icon-x" viewBox="0 0 32 32">
<path fill="#fff" style="fill: var(--color2, #fff)" d="M22.571 8.429c-0.586-0.586-1.536-0.586-2.121 0l-4.95 4.95-4.95-4.95c-0.586-0.586-1.536-0.586-2.121 0s-0.586 1.536 0 2.121l4.95 4.95-4.95 4.95c-0.586 0.586-0.586 1.536 0 2.121s1.536 0.586 2.121 0l4.95-4.95 4.95 4.95c0.586 0.586 1.536 0.586 2.121 0s0.586-1.536 0-2.121l-4.95-4.95 4.95-4.95c0.586-0.586 0.586-1.536 0-2.121z"></path>
</symbol>
<symbol id="icon-logo" viewBox="0 0 118 32">
<path d="M2.729 26v-13.261h1.335c0.253 0 0.428 0.048 0.524 0.144s0.161 0.262 0.196 0.498l0.157 2.068c0.454-0.925 1.012-1.645 1.676-2.16 0.672-0.524 1.457-0.785 2.356-0.785 0.367 0 0.698 0.044 0.995 0.131 0.297 0.079 0.572 0.192 0.825 0.34l-0.301 1.741c-0.061 0.218-0.196 0.327-0.406 0.327-0.122 0-0.31-0.039-0.563-0.118-0.253-0.087-0.607-0.131-1.060-0.131-0.812 0-1.492 0.236-2.042 0.707-0.541 0.471-0.995 1.156-1.361 2.055v8.444h-2.33zM18.539 12.53c0.794 0 1.527 0.135 2.199 0.406 0.672 0.262 1.252 0.646 1.741 1.152 0.489 0.497 0.868 1.117 1.139 1.859 0.279 0.733 0.419 1.571 0.419 2.513 0 0.367-0.039 0.611-0.118 0.733s-0.227 0.183-0.445 0.183h-8.823c0.017 0.838 0.131 1.567 0.34 2.186s0.498 1.139 0.864 1.558c0.367 0.41 0.803 0.72 1.309 0.93 0.506 0.201 1.073 0.301 1.702 0.301 0.585 0 1.087-0.065 1.506-0.196 0.428-0.14 0.794-0.288 1.1-0.445s0.559-0.301 0.759-0.432c0.209-0.14 0.388-0.209 0.537-0.209 0.192 0 0.34 0.074 0.445 0.223l0.655 0.851c-0.288 0.349-0.633 0.654-1.034 0.916-0.401 0.253-0.834 0.462-1.296 0.628-0.454 0.166-0.925 0.288-1.414 0.367-0.489 0.087-0.973 0.131-1.453 0.131-0.916 0-1.763-0.153-2.54-0.458-0.768-0.314-1.436-0.768-2.003-1.361-0.559-0.602-0.995-1.344-1.309-2.225s-0.471-1.894-0.471-3.037c0-0.925 0.14-1.789 0.419-2.592 0.288-0.803 0.698-1.497 1.23-2.082 0.532-0.593 1.183-1.056 1.951-1.388 0.768-0.34 1.632-0.511 2.592-0.511zM18.591 14.244c-1.126 0-2.012 0.327-2.657 0.982-0.646 0.646-1.047 1.545-1.204 2.697h7.213c0-0.541-0.074-1.034-0.223-1.479-0.148-0.454-0.367-0.842-0.655-1.165-0.288-0.332-0.641-0.585-1.060-0.759-0.41-0.183-0.881-0.275-1.414-0.275zM36.759 26h-1.034c-0.227 0-0.41-0.035-0.55-0.105s-0.231-0.218-0.275-0.445l-0.262-1.231c-0.349 0.314-0.689 0.598-1.021 0.851-0.332 0.244-0.681 0.454-1.047 0.628-0.367 0.166-0.759 0.292-1.178 0.38-0.41 0.087-0.868 0.131-1.375 0.131-0.515 0-0.999-0.070-1.453-0.209-0.445-0.148-0.833-0.366-1.165-0.654s-0.598-0.65-0.799-1.087c-0.192-0.445-0.288-0.969-0.288-1.571 0-0.524 0.144-1.026 0.432-1.506 0.288-0.489 0.751-0.921 1.388-1.296 0.646-0.375 1.488-0.681 2.527-0.916 1.038-0.244 2.308-0.384 3.809-0.419v-1.034c0-1.030-0.222-1.807-0.668-2.33-0.436-0.532-1.087-0.799-1.95-0.799-0.567 0-1.047 0.074-1.44 0.223-0.384 0.14-0.72 0.301-1.008 0.484-0.279 0.175-0.524 0.336-0.733 0.484-0.201 0.14-0.401 0.21-0.602 0.21-0.157 0-0.297-0.039-0.419-0.118-0.113-0.087-0.205-0.192-0.275-0.314l-0.419-0.746c0.733-0.707 1.523-1.235 2.369-1.584s1.785-0.524 2.815-0.524c0.742 0 1.401 0.122 1.977 0.367s1.060 0.585 1.453 1.021 0.689 0.964 0.89 1.584c0.201 0.62 0.301 1.3 0.301 2.042v8.483zM30.711 24.573c0.41 0 0.785-0.039 1.126-0.118 0.34-0.087 0.659-0.205 0.956-0.354 0.306-0.157 0.593-0.345 0.864-0.563 0.279-0.218 0.55-0.467 0.812-0.746v-2.762c-1.073 0.035-1.985 0.122-2.736 0.262-0.75 0.131-1.361 0.305-1.833 0.524s-0.816 0.476-1.034 0.772c-0.209 0.297-0.314 0.628-0.314 0.995 0 0.349 0.057 0.65 0.17 0.903s0.266 0.463 0.458 0.628c0.192 0.157 0.419 0.275 0.681 0.354 0.262 0.070 0.546 0.105 0.851 0.105zM49.623 26c-0.332 0-0.541-0.162-0.628-0.484l-0.209-1.61c-0.567 0.689-1.218 1.244-1.95 1.663-0.724 0.41-1.558 0.615-2.5 0.615-0.759 0-1.449-0.144-2.068-0.432-0.62-0.297-1.148-0.729-1.584-1.296s-0.772-1.274-1.008-2.121c-0.236-0.846-0.353-1.82-0.353-2.919 0-0.977 0.131-1.885 0.393-2.723 0.262-0.847 0.637-1.58 1.126-2.199 0.498-0.62 1.1-1.104 1.807-1.453 0.707-0.358 1.51-0.537 2.409-0.537 0.812 0 1.505 0.14 2.081 0.419 0.576 0.271 1.091 0.655 1.545 1.152v-7.357h2.33v19.283h-1.388zM45.107 24.298c0.759 0 1.422-0.175 1.99-0.524 0.576-0.349 1.104-0.842 1.584-1.479v-6.415c-0.428-0.576-0.899-0.977-1.414-1.204-0.506-0.236-1.069-0.354-1.689-0.354-1.239 0-2.191 0.441-2.854 1.322s-0.995 2.138-0.995 3.77c0 0.864 0.074 1.606 0.222 2.225 0.148 0.611 0.367 1.117 0.655 1.519 0.288 0.393 0.641 0.681 1.060 0.864s0.899 0.275 1.44 0.275zM54.574 26v-13.575h2.514c0.253 0 0.462 0.057 0.628 0.17 0.175 0.114 0.297 0.284 0.367 0.511l0.222 0.733c0.227-0.236 0.463-0.449 0.707-0.641 0.244-0.201 0.506-0.371 0.785-0.511 0.288-0.148 0.593-0.262 0.916-0.34 0.332-0.087 0.694-0.131 1.087-0.131 0.82 0 1.497 0.214 2.029 0.641 0.541 0.419 0.951 0.982 1.231 1.689 0.227-0.419 0.502-0.777 0.825-1.073 0.332-0.297 0.685-0.537 1.060-0.72 0.384-0.183 0.785-0.319 1.204-0.406 0.428-0.087 0.851-0.131 1.27-0.131 0.777 0 1.466 0.118 2.068 0.353 0.602 0.227 1.104 0.563 1.505 1.008 0.41 0.436 0.72 0.977 0.93 1.623 0.21 0.637 0.314 1.361 0.314 2.173v8.627h-4.058v-8.627c0-1.405-0.602-2.108-1.806-2.108-0.55 0-1.008 0.183-1.375 0.55-0.358 0.358-0.537 0.877-0.537 1.558v8.627h-4.058v-8.627c0-0.777-0.153-1.322-0.458-1.636s-0.755-0.471-1.348-0.471c-0.367 0-0.716 0.083-1.047 0.249-0.323 0.166-0.628 0.388-0.916 0.668v9.818h-4.058zM83.173 12.215c1.030 0 1.968 0.161 2.814 0.484s1.571 0.786 2.173 1.388c0.611 0.602 1.082 1.335 1.414 2.199 0.34 0.855 0.511 1.82 0.511 2.893 0 1.082-0.17 2.060-0.511 2.932-0.332 0.864-0.803 1.602-1.414 2.212-0.602 0.602-1.326 1.069-2.173 1.401-0.847 0.323-1.785 0.484-2.814 0.484-1.039 0-1.986-0.162-2.841-0.484-0.847-0.332-1.58-0.799-2.199-1.401-0.611-0.611-1.087-1.348-1.427-2.212-0.332-0.873-0.498-1.85-0.498-2.932 0-1.073 0.166-2.038 0.498-2.893 0.34-0.864 0.816-1.597 1.427-2.199 0.62-0.602 1.353-1.065 2.199-1.388 0.855-0.323 1.802-0.484 2.841-0.484zM83.173 23.198c0.934 0 1.619-0.327 2.055-0.982 0.445-0.663 0.668-1.667 0.668-3.011s-0.223-2.343-0.668-2.998c-0.436-0.655-1.121-0.982-2.055-0.982-0.96 0-1.663 0.327-2.108 0.982s-0.668 1.654-0.668 2.998c0 1.344 0.222 2.348 0.668 3.011 0.445 0.655 1.148 0.982 2.108 0.982zM92.312 26v-13.575h2.409c0.201 0 0.367 0.018 0.498 0.052 0.14 0.035 0.253 0.092 0.34 0.17 0.096 0.070 0.166 0.166 0.21 0.288 0.052 0.122 0.096 0.271 0.131 0.445l0.222 1.27c0.498-0.768 1.056-1.375 1.676-1.82s1.296-0.668 2.029-0.668c0.619 0 1.117 0.148 1.492 0.445l-0.524 2.985c-0.035 0.183-0.104 0.314-0.209 0.393-0.105 0.070-0.245 0.105-0.419 0.105-0.148 0-0.323-0.017-0.524-0.052-0.201-0.044-0.454-0.065-0.759-0.065-1.065 0-1.903 0.567-2.513 1.702v8.326h-4.058zM108.94 12.215c0.899 0 1.719 0.14 2.461 0.419 0.751 0.279 1.392 0.685 1.925 1.217 0.541 0.532 0.96 1.187 1.256 1.964 0.306 0.768 0.458 1.641 0.458 2.618 0 0.305-0.013 0.554-0.039 0.746s-0.074 0.345-0.144 0.458c-0.070 0.113-0.166 0.192-0.288 0.236-0.113 0.044-0.262 0.065-0.445 0.065h-7.828c0.131 1.135 0.475 1.959 1.034 2.474 0.558 0.506 1.278 0.759 2.16 0.759 0.471 0 0.877-0.057 1.217-0.17s0.642-0.24 0.904-0.38c0.27-0.14 0.515-0.266 0.733-0.38 0.227-0.113 0.462-0.17 0.707-0.17 0.323 0 0.567 0.118 0.733 0.354l1.178 1.453c-0.419 0.48-0.873 0.873-1.362 1.178-0.48 0.297-0.977 0.532-1.492 0.707-0.506 0.166-1.017 0.279-1.532 0.34-0.506 0.070-0.99 0.105-1.453 0.105-0.951 0-1.845-0.153-2.683-0.458-0.829-0.314-1.558-0.777-2.186-1.388-0.62-0.611-1.113-1.37-1.48-2.278-0.358-0.908-0.536-1.964-0.536-3.168 0-0.908 0.152-1.767 0.458-2.579 0.314-0.812 0.759-1.523 1.335-2.134 0.585-0.611 1.287-1.095 2.108-1.453 0.829-0.358 1.763-0.537 2.801-0.537zM109.019 15.017c-0.777 0-1.384 0.223-1.82 0.668-0.436 0.436-0.724 1.069-0.864 1.898h5.066c0-0.323-0.043-0.637-0.131-0.942-0.078-0.305-0.214-0.576-0.406-0.812-0.183-0.244-0.427-0.441-0.733-0.589s-0.676-0.223-1.112-0.223z"></path>
</symbol>
<symbol id="icon-star" viewBox="0 0 30 32">
<path fill="#e2e2e2" style="fill: var(--color1, #e2e2e2)" d="M1.772 12.321l8.568-1.214 3.84-7.585c0.287-0.566 1.289-0.566 1.576 0l3.839 7.585 8.568 1.214c0.704 0.1 0.985 0.894 0.491 1.362l-6.225 5.916 1.471 8.364c0.117 0.664-0.648 1.163-1.281 0.837l-7.653-3.922-7.653 3.923c-0.627 0.323-1.399-0.166-1.281-0.837l1.471-8.364-6.224-5.916c-0.494-0.469-0.211-1.263 0.491-1.363v0z"></path>
</symbol>
<symbol id="icon-clock" viewBox="0 0 32 32">
<path fill="#ffbc96" style="fill: var(--color1, #ffbc96)" d="M27.818 8.909c-0.62 0.3-0.879 1.046-0.579 1.666 0.819 1.693 1.235 3.518 1.235 5.425 0 6.878-5.596 12.473-12.473 12.473s-12.473-5.596-12.473-12.473c0-6.878 5.596-12.473 12.473-12.473 2.85 0 5.527 0.931 7.743 2.691 0.538 0.429 1.323 0.339 1.753-0.2s0.339-1.324-0.2-1.752c-2.623-2.085-5.925-3.233-9.295-3.233-8.253 0-14.968 6.715-14.968 14.968s6.715 14.968 14.968 14.968c8.253 0 14.968-6.715 14.968-14.968 0-2.287-0.499-4.479-1.484-6.512-0.299-0.621-1.048-0.88-1.666-0.579z"></path>
<path fill="#ffbc96" style="fill: var(--color1, #ffbc96)" d="M15.779 6.194c-0.733 0-1.327 0.565-1.327 1.262v8.832c0 0.696 0.595 1.262 1.327 1.262h6.636c0.733 0 1.327-0.565 1.327-1.262s-0.595-1.262-1.327-1.262h-5.309v-7.57c0-0.696-0.595-1.262-1.327-1.262z"></path>
</symbol>
<symbol id="icon-bookmark-orange" viewBox="0 0 33 32">
<path fill="none" stroke="#ea8b56" style="stroke: var(--color1, #ea8b56)" stroke-linejoin="miter" stroke-linecap="butt" stroke-miterlimit="4" stroke-width="1.2597" d="M11.547 23.254v-15.696h9.763v15.696l-4.331-3.464c-0.322-0.258-0.78-0.258-1.102 0l-4.331 3.464z"></path>
</symbol>
<symbol id="icon-bookmark-orange-solid" viewBox="0 0 32 32">
<path fill="#ea8b56" style="fill: var(--color1, #ea8b56)" d="M10.742 7.18c0-0.139 0.113-0.252 0.252-0.252h10.518c0.139 0 0.252 0.113 0.252 0.252v16.86c0 0.211-0.244 0.329-0.409 0.197l-4.945-3.956c-0.092-0.074-0.223-0.074-0.315 0l-4.945 3.956c-0.165 0.132-0.409 0.014-0.409-0.197v-16.86z"></path>
</symbol>
</defs>
</svg>
